<svg width="32" height="32" viewBox="0 0 32 32" fill="none" xmlns="http://www.w3.org/2000/svg">
<path d="M31 11.5H19.55L16 1L12.45 11.5H1L10.25 18L6.7 28.5L16 22L25.25 28.5L21.7 18L31 11.5Z" fill="#FF981F"/>
<path d="M23.1 10.1502L25.1 4.4502L19.85 8.0502L20.6 10.1502H23.1ZM13.95 25.0002L16 31.0002L18.05 25.0002L16 23.6002L13.95 25.0002ZM25.35 17.1502L23.45 18.4502L24.25 20.8502H30.7L25.35 17.1502ZM12.15 8.0502L6.90005 4.4502L8.90005 10.1502H11.4L12.15 8.0502ZM6.65005 17.1502L1.30005 20.8502H7.75005L8.55005 18.4502L6.65005 17.1502Z" fill="#FFC02D"/>
</svg>
