<svg width="300" height="300" viewBox="0 0 300 300" fill="none" xmlns="http://www.w3.org/2000/svg">
<g clip-path="url(#clip0_282_6171)">
<mask id="path-1-inside-1_282_6171" fill="white">
<path d="M0 12C0 6.34315 0 3.51472 1.75736 1.75736C3.51472 0 6.34315 0 12 0H288C293.657 0 296.485 0 298.243 1.75736C300 3.51472 300 6.34315 300 12V288C300 293.657 300 296.485 298.243 298.243C296.485 300 293.657 300 288 300H12C6.34315 300 3.51472 300 1.75736 298.243C0 296.485 0 293.657 0 288V12Z"/>
</mask>
<path d="M300 0H0V300H300V0Z" fill="white"/>
<path d="M27.8017 18.75H18.75V27.8017H27.8017V18.75Z" fill="#212121"/>
<path d="M36.8534 18.75H27.8017V27.8017H36.8534V18.75Z" fill="#212121"/>
<path d="M45.9052 18.75H36.8534V27.8017H45.9052V18.75Z" fill="#212121"/>
<path d="M54.9569 18.75H45.9052V27.8017H54.9569V18.75Z" fill="#212121"/>
<path d="M64.0086 18.75H54.9569V27.8017H64.0086V18.75Z" fill="#212121"/>
<path d="M73.0603 18.75H64.0086V27.8017H73.0603V18.75Z" fill="#212121"/>
<path d="M82.1121 18.75H73.0603V27.8017H82.1121V18.75Z" fill="#212121"/>
<path d="M100.216 18.75H91.1638V27.8017H100.216V18.75Z" fill="#212121"/>
<path d="M127.371 18.75H118.319V27.8017H127.371V18.75Z" fill="#212121"/>
<path d="M145.474 18.75H136.422V27.8017H145.474V18.75Z" fill="#212121"/>
<path d="M154.526 18.75H145.474V27.8017H154.526V18.75Z" fill="#212121"/>
<path d="M172.629 18.75H163.578V27.8017H172.629V18.75Z" fill="#212121"/>
<path d="M181.681 18.75H172.629V27.8017H181.681V18.75Z" fill="#212121"/>
<path d="M190.733 18.75H181.681V27.8017H190.733V18.75Z" fill="#212121"/>
<path d="M199.785 18.75H190.733V27.8017H199.785V18.75Z" fill="#212121"/>
<path d="M208.836 18.75H199.785V27.8017H208.836V18.75Z" fill="#212121"/>
<path d="M226.94 18.75H217.888V27.8017H226.94V18.75Z" fill="#212121"/>
<path d="M235.991 18.75H226.94V27.8017H235.991V18.75Z" fill="#212121"/>
<path d="M245.043 18.75H235.991V27.8017H245.043V18.75Z" fill="#212121"/>
<path d="M254.095 18.75H245.043V27.8017H254.095V18.75Z" fill="#212121"/>
<path d="M263.147 18.75H254.095V27.8017H263.147V18.75Z" fill="#212121"/>
<path d="M272.198 18.75H263.147V27.8017H272.198V18.75Z" fill="#212121"/>
<path d="M281.25 18.75H272.198V27.8017H281.25V18.75Z" fill="#212121"/>
<path d="M27.8017 27.8017H18.75V36.8534H27.8017V27.8017Z" fill="#212121"/>
<path d="M82.1121 27.8017H73.0603V36.8534H82.1121V27.8017Z" fill="#212121"/>
<path d="M127.371 27.8017H118.319V36.8534H127.371V27.8017Z" fill="#212121"/>
<path d="M136.422 27.8017H127.371V36.8534H136.422V27.8017Z" fill="#212121"/>
<path d="M154.526 27.8017H145.474V36.8534H154.526V27.8017Z" fill="#212121"/>
<path d="M163.578 27.8017H154.526V36.8534H163.578V27.8017Z" fill="#212121"/>
<path d="M181.681 27.8017H172.629V36.8534H181.681V27.8017Z" fill="#212121"/>
<path d="M190.733 27.8017H181.681V36.8534H190.733V27.8017Z" fill="#212121"/>
<path d="M199.785 27.8017H190.733V36.8534H199.785V27.8017Z" fill="#212121"/>
<path d="M208.836 27.8017H199.785V36.8534H208.836V27.8017Z" fill="#212121"/>
<path d="M226.94 27.8017H217.888V36.8534H226.94V27.8017Z" fill="#212121"/>
<path d="M281.25 27.8017H272.198V36.8534H281.25V27.8017Z" fill="#212121"/>
<path d="M27.8017 36.8534H18.75V45.9052H27.8017V36.8534Z" fill="#212121"/>
<path d="M45.9052 36.8534H36.8534V45.9052H45.9052V36.8534Z" fill="#212121"/>
<path d="M54.9569 36.8534H45.9052V45.9052H54.9569V36.8534Z" fill="#212121"/>
<path d="M64.0086 36.8534H54.9569V45.9052H64.0086V36.8534Z" fill="#212121"/>
<path d="M82.1121 36.8534H73.0603V45.9052H82.1121V36.8534Z" fill="#212121"/>
<path d="M109.267 36.8534H100.216V45.9052H109.267V36.8534Z" fill="#212121"/>
<path d="M136.422 36.8534H127.371V45.9052H136.422V36.8534Z" fill="#212121"/>
<path d="M145.474 36.8534H136.422V45.9052H145.474V36.8534Z" fill="#212121"/>
<path d="M154.526 36.8534H145.474V45.9052H154.526V36.8534Z" fill="#212121"/>
<path d="M190.733 36.8534H181.681V45.9052H190.733V36.8534Z" fill="#212121"/>
<path d="M226.94 36.8534H217.888V45.9052H226.94V36.8534Z" fill="#212121"/>
<path d="M245.043 36.8534H235.991V45.9052H245.043V36.8534Z" fill="#212121"/>
<path d="M254.095 36.8534H245.043V45.9052H254.095V36.8534Z" fill="#212121"/>
<path d="M263.147 36.8534H254.095V45.9052H263.147V36.8534Z" fill="#212121"/>
<path d="M281.25 36.8534H272.198V45.9052H281.25V36.8534Z" fill="#212121"/>
<path d="M27.8017 45.9052H18.75V54.9569H27.8017V45.9052Z" fill="#212121"/>
<path d="M45.9052 45.9052H36.8534V54.9569H45.9052V45.9052Z" fill="#212121"/>
<path d="M54.9569 45.9052H45.9052V54.9569H54.9569V45.9052Z" fill="#212121"/>
<path d="M64.0086 45.9052H54.9569V54.9569H64.0086V45.9052Z" fill="#212121"/>
<path d="M82.1121 45.9052H73.0603V54.9569H82.1121V45.9052Z" fill="#212121"/>
<path d="M100.216 45.9052H91.1638V54.9569H100.216V45.9052Z" fill="#212121"/>
<path d="M109.267 45.9052H100.216V54.9569H109.267V45.9052Z" fill="#212121"/>
<path d="M118.319 45.9052H109.267V54.9569H118.319V45.9052Z" fill="#212121"/>
<path d="M127.371 45.9052H118.319V54.9569H127.371V45.9052Z" fill="#212121"/>
<path d="M145.474 45.9052H136.422V54.9569H145.474V45.9052Z" fill="#212121"/>
<path d="M154.526 45.9052H145.474V54.9569H154.526V45.9052Z" fill="#212121"/>
<path d="M172.629 45.9052H163.578V54.9569H172.629V45.9052Z" fill="#212121"/>
<path d="M190.733 45.9052H181.681V54.9569H190.733V45.9052Z" fill="#212121"/>
<path d="M226.94 45.9052H217.888V54.9569H226.94V45.9052Z" fill="#212121"/>
<path d="M245.043 45.9052H235.991V54.9569H245.043V45.9052Z" fill="#212121"/>
<path d="M254.095 45.9052H245.043V54.9569H254.095V45.9052Z" fill="#212121"/>
<path d="M263.147 45.9052H254.095V54.9569H263.147V45.9052Z" fill="#212121"/>
<path d="M281.25 45.9052H272.198V54.9569H281.25V45.9052Z" fill="#212121"/>
<path d="M27.8017 54.9569H18.75V64.0086H27.8017V54.9569Z" fill="#212121"/>
<path d="M45.9052 54.9569H36.8534V64.0086H45.9052V54.9569Z" fill="#212121"/>
<path d="M54.9569 54.9569H45.9052V64.0086H54.9569V54.9569Z" fill="#212121"/>
<path d="M64.0086 54.9569H54.9569V64.0086H64.0086V54.9569Z" fill="#212121"/>
<path d="M82.1121 54.9569H73.0603V64.0086H82.1121V54.9569Z" fill="#212121"/>
<path d="M100.216 54.9569H91.1638V64.0086H100.216V54.9569Z" fill="#212121"/>
<path d="M109.267 54.9569H100.216V64.0086H109.267V54.9569Z" fill="#212121"/>
<path d="M118.319 54.9569H109.267V64.0086H118.319V54.9569Z" fill="#212121"/>
<path d="M127.371 54.9569H118.319V64.0086H127.371V54.9569Z" fill="#212121"/>
<path d="M145.474 54.9569H136.422V64.0086H145.474V54.9569Z" fill="#212121"/>
<path d="M172.629 54.9569H163.578V64.0086H172.629V54.9569Z" fill="#212121"/>
<path d="M226.94 54.9569H217.888V64.0086H226.94V54.9569Z" fill="#212121"/>
<path d="M245.043 54.9569H235.991V64.0086H245.043V54.9569Z" fill="#212121"/>
<path d="M254.095 54.9569H245.043V64.0086H254.095V54.9569Z" fill="#212121"/>
<path d="M263.147 54.9569H254.095V64.0086H263.147V54.9569Z" fill="#212121"/>
<path d="M281.25 54.9569H272.198V64.0086H281.25V54.9569Z" fill="#212121"/>
<path d="M27.8017 64.0086H18.75V73.0603H27.8017V64.0086Z" fill="#212121"/>
<path d="M82.1121 64.0086H73.0603V73.0603H82.1121V64.0086Z" fill="#212121"/>
<path d="M100.216 64.0086H91.1638V73.0603H100.216V64.0086Z" fill="#212121"/>
<path d="M109.267 64.0086H100.216V73.0603H109.267V64.0086Z" fill="#212121"/>
<path d="M127.371 64.0086H118.319V73.0603H127.371V64.0086Z" fill="#212121"/>
<path d="M145.474 64.0086H136.422V73.0603H145.474V64.0086Z" fill="#212121"/>
<path d="M172.629 64.0086H163.578V73.0603H172.629V64.0086Z" fill="#212121"/>
<path d="M199.785 64.0086H190.733V73.0603H199.785V64.0086Z" fill="#212121"/>
<path d="M226.94 64.0086H217.888V73.0603H226.94V64.0086Z" fill="#212121"/>
<path d="M281.25 64.0086H272.198V73.0603H281.25V64.0086Z" fill="#212121"/>
<path d="M27.8017 73.0603H18.75V82.1121H27.8017V73.0603Z" fill="#212121"/>
<path d="M36.8534 73.0603H27.8017V82.1121H36.8534V73.0603Z" fill="#212121"/>
<path d="M45.9052 73.0603H36.8534V82.1121H45.9052V73.0603Z" fill="#212121"/>
<path d="M54.9569 73.0603H45.9052V82.1121H54.9569V73.0603Z" fill="#212121"/>
<path d="M64.0086 73.0603H54.9569V82.1121H64.0086V73.0603Z" fill="#212121"/>
<path d="M73.0603 73.0603H64.0086V82.1121H73.0603V73.0603Z" fill="#212121"/>
<path d="M82.1121 73.0603H73.0603V82.1121H82.1121V73.0603Z" fill="#212121"/>
<path d="M100.216 73.0603H91.1638V82.1121H100.216V73.0603Z" fill="#212121"/>
<path d="M118.319 73.0603H109.267V82.1121H118.319V73.0603Z" fill="#212121"/>
<path d="M136.422 73.0603H127.371V82.1121H136.422V73.0603Z" fill="#212121"/>
<path d="M154.526 73.0603H145.474V82.1121H154.526V73.0603Z" fill="#212121"/>
<path d="M172.629 73.0603H163.578V82.1121H172.629V73.0603Z" fill="#212121"/>
<path d="M190.733 73.0603H181.681V82.1121H190.733V73.0603Z" fill="#212121"/>
<path d="M208.836 73.0603H199.785V82.1121H208.836V73.0603Z" fill="#212121"/>
<path d="M226.94 73.0603H217.888V82.1121H226.94V73.0603Z" fill="#212121"/>
<path d="M235.991 73.0603H226.94V82.1121H235.991V73.0603Z" fill="#212121"/>
<path d="M245.043 73.0603H235.991V82.1121H245.043V73.0603Z" fill="#212121"/>
<path d="M254.095 73.0603H245.043V82.1121H254.095V73.0603Z" fill="#212121"/>
<path d="M263.147 73.0603H254.095V82.1121H263.147V73.0603Z" fill="#212121"/>
<path d="M272.198 73.0603H263.147V82.1121H272.198V73.0603Z" fill="#212121"/>
<path d="M281.25 73.0603H272.198V82.1121H281.25V73.0603Z" fill="#212121"/>
<path d="M100.216 82.1121H91.1638V91.1638H100.216V82.1121Z" fill="#212121"/>
<path d="M109.267 82.1121H100.216V91.1638H109.267V82.1121Z" fill="#212121"/>
<path d="M154.526 82.1121H145.474V91.1638H154.526V82.1121Z" fill="#212121"/>
<path d="M172.629 82.1121H163.578V91.1638H172.629V82.1121Z" fill="#212121"/>
<path d="M190.733 82.1121H181.681V91.1638H190.733V82.1121Z" fill="#212121"/>
<path d="M208.836 82.1121H199.785V91.1638H208.836V82.1121Z" fill="#212121"/>
<path d="M27.8017 91.1638H18.75V100.216H27.8017V91.1638Z" fill="#212121"/>
<path d="M36.8534 91.1638H27.8017V100.216H36.8534V91.1638Z" fill="#212121"/>
<path d="M45.9052 91.1638H36.8534V100.216H45.9052V91.1638Z" fill="#212121"/>
<path d="M64.0086 91.1638H54.9569V100.216H64.0086V91.1638Z" fill="#212121"/>
<path d="M82.1121 91.1638H73.0603V100.216H82.1121V91.1638Z" fill="#212121"/>
<path d="M100.216 91.1638H91.1638V100.216H100.216V91.1638Z" fill="#212121"/>
<path d="M109.267 91.1638H100.216V100.216H109.267V91.1638Z" fill="#212121"/>
<path d="M136.422 91.1638H127.371V100.216H136.422V91.1638Z" fill="#212121"/>
<path d="M145.474 91.1638H136.422V100.216H145.474V91.1638Z" fill="#212121"/>
<path d="M154.526 91.1638H145.474V100.216H154.526V91.1638Z" fill="#212121"/>
<path d="M163.578 91.1638H154.526V100.216H163.578V91.1638Z" fill="#212121"/>
<path d="M181.681 91.1638H172.629V100.216H181.681V91.1638Z" fill="#212121"/>
<path d="M190.733 91.1638H181.681V100.216H190.733V91.1638Z" fill="#212121"/>
<path d="M199.785 91.1638H190.733V100.216H199.785V91.1638Z" fill="#212121"/>
<path d="M208.836 91.1638H199.785V100.216H208.836V91.1638Z" fill="#212121"/>
<path d="M217.888 91.1638H208.836V100.216H217.888V91.1638Z" fill="#212121"/>
<path d="M226.94 91.1638H217.888V100.216H226.94V91.1638Z" fill="#212121"/>
<path d="M235.991 91.1638H226.94V100.216H235.991V91.1638Z" fill="#212121"/>
<path d="M245.043 91.1638H235.991V100.216H245.043V91.1638Z" fill="#212121"/>
<path d="M254.095 91.1638H245.043V100.216H254.095V91.1638Z" fill="#212121"/>
<path d="M281.25 91.1638H272.198V100.216H281.25V91.1638Z" fill="#212121"/>
<path d="M27.8017 100.216H18.75V109.267H27.8017V100.216Z" fill="#212121"/>
<path d="M109.267 100.216H100.216V109.267H109.267V100.216Z" fill="#212121"/>
<path d="M136.422 100.216H127.371V109.267H136.422V100.216Z" fill="#212121"/>
<path d="M154.526 100.216H145.474V109.267H154.526V100.216Z" fill="#212121"/>
<path d="M163.578 100.216H154.526V109.267H163.578V100.216Z" fill="#212121"/>
<path d="M172.629 100.216H163.578V109.267H172.629V100.216Z" fill="#212121"/>
<path d="M199.785 100.216H190.733V109.267H199.785V100.216Z" fill="#212121"/>
<path d="M208.836 100.216H199.785V109.267H208.836V100.216Z" fill="#212121"/>
<path d="M226.94 100.216H217.888V109.267H226.94V100.216Z" fill="#212121"/>
<path d="M235.991 100.216H226.94V109.267H235.991V100.216Z" fill="#212121"/>
<path d="M245.043 100.216H235.991V109.267H245.043V100.216Z" fill="#212121"/>
<path d="M254.095 100.216H245.043V109.267H254.095V100.216Z" fill="#212121"/>
<path d="M263.147 100.216H254.095V109.267H263.147V100.216Z" fill="#212121"/>
<path d="M272.198 100.216H263.147V109.267H272.198V100.216Z" fill="#212121"/>
<path d="M36.8534 109.267H27.8017V118.319H36.8534V109.267Z" fill="#212121"/>
<path d="M64.0086 109.267H54.9569V118.319H64.0086V109.267Z" fill="#212121"/>
<path d="M73.0603 109.267H64.0086V118.319H73.0603V109.267Z" fill="#212121"/>
<path d="M82.1121 109.267H73.0603V118.319H82.1121V109.267Z" fill="#212121"/>
<path d="M91.1638 109.267H82.1121V118.319H91.1638V109.267Z" fill="#212121"/>
<path d="M100.216 109.267H91.1638V118.319H100.216V109.267Z" fill="#212121"/>
<path d="M109.267 109.267H100.216V118.319H109.267V109.267Z" fill="#212121"/>
<path d="M127.371 109.267H118.319V118.319H127.371V109.267Z" fill="#212121"/>
<path d="M154.526 109.267H145.474V118.319H154.526V109.267Z" fill="#212121"/>
<path d="M163.578 109.267H154.526V118.319H163.578V109.267Z" fill="#212121"/>
<path d="M172.629 109.267H163.578V118.319H172.629V109.267Z" fill="#212121"/>
<path d="M181.681 109.267H172.629V118.319H181.681V109.267Z" fill="#212121"/>
<path d="M208.836 109.267H199.785V118.319H208.836V109.267Z" fill="#212121"/>
<path d="M226.94 109.267H217.888V118.319H226.94V109.267Z" fill="#212121"/>
<path d="M245.043 109.267H235.991V118.319H245.043V109.267Z" fill="#212121"/>
<path d="M281.25 109.267H272.198V118.319H281.25V109.267Z" fill="#212121"/>
<path d="M27.8017 118.319H18.75V127.371H27.8017V118.319Z" fill="#212121"/>
<path d="M36.8534 118.319H27.8017V127.371H36.8534V118.319Z" fill="#212121"/>
<path d="M73.0603 118.319H64.0086V127.371H73.0603V118.319Z" fill="#212121"/>
<path d="M109.267 118.319H100.216V127.371H109.267V118.319Z" fill="#212121"/>
<path d="M118.319 118.319H109.267V127.371H118.319V118.319Z" fill="#212121"/>
<path d="M136.422 118.319H127.371V127.371H136.422V118.319Z" fill="#212121"/>
<path d="M145.474 118.319H136.422V127.371H145.474V118.319Z" fill="#212121"/>
<path d="M181.681 118.319H172.629V127.371H181.681V118.319Z" fill="#212121"/>
<path d="M190.733 118.319H181.681V127.371H190.733V118.319Z" fill="#212121"/>
<path d="M217.888 118.319H208.836V127.371H217.888V118.319Z" fill="#212121"/>
<path d="M226.94 118.319H217.888V127.371H226.94V118.319Z" fill="#212121"/>
<path d="M235.991 118.319H226.94V127.371H235.991V118.319Z" fill="#212121"/>
<path d="M245.043 118.319H235.991V127.371H245.043V118.319Z" fill="#212121"/>
<path d="M281.25 118.319H272.198V127.371H281.25V118.319Z" fill="#212121"/>
<path d="M27.8017 127.371H18.75V136.422H27.8017V127.371Z" fill="#212121"/>
<path d="M73.0603 127.371H64.0086V136.422H73.0603V127.371Z" fill="#212121"/>
<path d="M82.1121 127.371H73.0603V136.422H82.1121V127.371Z" fill="#212121"/>
<path d="M91.1638 127.371H82.1121V136.422H91.1638V127.371Z" fill="#212121"/>
<path d="M118.319 127.371H109.267V136.422H118.319V127.371Z" fill="#212121"/>
<path d="M145.474 127.371H136.422V136.422H145.474V127.371Z" fill="#212121"/>
<path d="M154.526 127.371H145.474V136.422H154.526V127.371Z" fill="#212121"/>
<path d="M172.629 127.371H163.578V136.422H172.629V127.371Z" fill="#212121"/>
<path d="M181.681 127.371H172.629V136.422H181.681V127.371Z" fill="#212121"/>
<path d="M190.733 127.371H181.681V136.422H190.733V127.371Z" fill="#212121"/>
<path d="M199.785 127.371H190.733V136.422H199.785V127.371Z" fill="#212121"/>
<path d="M217.888 127.371H208.836V136.422H217.888V127.371Z" fill="#212121"/>
<path d="M226.94 127.371H217.888V136.422H226.94V127.371Z" fill="#212121"/>
<path d="M245.043 127.371H235.991V136.422H245.043V127.371Z" fill="#212121"/>
<path d="M263.147 127.371H254.095V136.422H263.147V127.371Z" fill="#212121"/>
<path d="M91.1638 136.422H82.1121V145.474H91.1638V136.422Z" fill="#212121"/>
<path d="M100.216 136.422H91.1638V145.474H100.216V136.422Z" fill="#212121"/>
<path d="M109.267 136.422H100.216V145.474H109.267V136.422Z" fill="#212121"/>
<path d="M118.319 136.422H109.267V145.474H118.319V136.422Z" fill="#212121"/>
<path d="M127.371 136.422H118.319V145.474H127.371V136.422Z" fill="#212121"/>
<path d="M136.422 136.422H127.371V145.474H136.422V136.422Z" fill="#212121"/>
<path d="M145.474 136.422H136.422V145.474H145.474V136.422Z" fill="#212121"/>
<path d="M154.526 136.422H145.474V145.474H154.526V136.422Z" fill="#212121"/>
<path d="M181.681 136.422H172.629V145.474H181.681V136.422Z" fill="#212121"/>
<path d="M208.836 136.422H199.785V145.474H208.836V136.422Z" fill="#212121"/>
<path d="M245.043 136.422H235.991V145.474H245.043V136.422Z" fill="#212121"/>
<path d="M281.25 136.422H272.198V145.474H281.25V136.422Z" fill="#212121"/>
<path d="M64.0086 145.474H54.9569V154.526H64.0086V145.474Z" fill="#212121"/>
<path d="M82.1121 145.474H73.0603V154.526H82.1121V145.474Z" fill="#212121"/>
<path d="M145.474 145.474H136.422V154.526H145.474V145.474Z" fill="#212121"/>
<path d="M172.629 145.474H163.578V154.526H172.629V145.474Z" fill="#212121"/>
<path d="M181.681 145.474H172.629V154.526H181.681V145.474Z" fill="#212121"/>
<path d="M199.785 145.474H190.733V154.526H199.785V145.474Z" fill="#212121"/>
<path d="M208.836 145.474H199.785V154.526H208.836V145.474Z" fill="#212121"/>
<path d="M217.888 145.474H208.836V154.526H217.888V145.474Z" fill="#212121"/>
<path d="M226.94 145.474H217.888V154.526H226.94V145.474Z" fill="#212121"/>
<path d="M235.991 145.474H226.94V154.526H235.991V145.474Z" fill="#212121"/>
<path d="M245.043 145.474H235.991V154.526H245.043V145.474Z" fill="#212121"/>
<path d="M272.198 145.474H263.147V154.526H272.198V145.474Z" fill="#212121"/>
<path d="M27.8017 154.526H18.75V163.578H27.8017V154.526Z" fill="#212121"/>
<path d="M45.9052 154.526H36.8534V163.578H45.9052V154.526Z" fill="#212121"/>
<path d="M64.0086 154.526H54.9569V163.578H64.0086V154.526Z" fill="#212121"/>
<path d="M73.0603 154.526H64.0086V163.578H73.0603V154.526Z" fill="#212121"/>
<path d="M91.1638 154.526H82.1121V163.578H91.1638V154.526Z" fill="#212121"/>
<path d="M118.319 154.526H109.267V163.578H118.319V154.526Z" fill="#212121"/>
<path d="M136.422 154.526H127.371V163.578H136.422V154.526Z" fill="#212121"/>
<path d="M163.578 154.526H154.526V163.578H163.578V154.526Z" fill="#212121"/>
<path d="M190.733 154.526H181.681V163.578H190.733V154.526Z" fill="#212121"/>
<path d="M208.836 154.526H199.785V163.578H208.836V154.526Z" fill="#212121"/>
<path d="M235.991 154.526H226.94V163.578H235.991V154.526Z" fill="#212121"/>
<path d="M263.147 154.526H254.095V163.578H263.147V154.526Z" fill="#212121"/>
<path d="M272.198 154.526H263.147V163.578H272.198V154.526Z" fill="#212121"/>
<path d="M281.25 154.526H272.198V163.578H281.25V154.526Z" fill="#212121"/>
<path d="M27.8017 163.578H18.75V172.629H27.8017V163.578Z" fill="#212121"/>
<path d="M36.8534 163.578H27.8017V172.629H36.8534V163.578Z" fill="#212121"/>
<path d="M45.9052 163.578H36.8534V172.629H45.9052V163.578Z" fill="#212121"/>
<path d="M54.9569 163.578H45.9052V172.629H54.9569V163.578Z" fill="#212121"/>
<path d="M64.0086 163.578H54.9569V172.629H64.0086V163.578Z" fill="#212121"/>
<path d="M73.0603 163.578H64.0086V172.629H73.0603V163.578Z" fill="#212121"/>
<path d="M82.1121 163.578H73.0603V172.629H82.1121V163.578Z" fill="#212121"/>
<path d="M91.1638 163.578H82.1121V172.629H91.1638V163.578Z" fill="#212121"/>
<path d="M109.267 163.578H100.216V172.629H109.267V163.578Z" fill="#212121"/>
<path d="M118.319 163.578H109.267V172.629H118.319V163.578Z" fill="#212121"/>
<path d="M127.371 163.578H118.319V172.629H127.371V163.578Z" fill="#212121"/>
<path d="M136.422 163.578H127.371V172.629H136.422V163.578Z" fill="#212121"/>
<path d="M145.474 163.578H136.422V172.629H145.474V163.578Z" fill="#212121"/>
<path d="M154.526 163.578H145.474V172.629H154.526V163.578Z" fill="#212121"/>
<path d="M172.629 163.578H163.578V172.629H172.629V163.578Z" fill="#212121"/>
<path d="M181.681 163.578H172.629V172.629H181.681V163.578Z" fill="#212121"/>
<path d="M208.836 163.578H199.785V172.629H208.836V163.578Z" fill="#212121"/>
<path d="M245.043 163.578H235.991V172.629H245.043V163.578Z" fill="#212121"/>
<path d="M263.147 163.578H254.095V172.629H263.147V163.578Z" fill="#212121"/>
<path d="M272.198 163.578H263.147V172.629H272.198V163.578Z" fill="#212121"/>
<path d="M281.25 163.578H272.198V172.629H281.25V163.578Z" fill="#212121"/>
<path d="M27.8017 172.629H18.75V181.681H27.8017V172.629Z" fill="#212121"/>
<path d="M73.0603 172.629H64.0086V181.681H73.0603V172.629Z" fill="#212121"/>
<path d="M100.216 172.629H91.1638V181.681H100.216V172.629Z" fill="#212121"/>
<path d="M118.319 172.629H109.267V181.681H118.319V172.629Z" fill="#212121"/>
<path d="M127.371 172.629H118.319V181.681H127.371V172.629Z" fill="#212121"/>
<path d="M145.474 172.629H136.422V181.681H145.474V172.629Z" fill="#212121"/>
<path d="M154.526 172.629H145.474V181.681H154.526V172.629Z" fill="#212121"/>
<path d="M190.733 172.629H181.681V181.681H190.733V172.629Z" fill="#212121"/>
<path d="M208.836 172.629H199.785V181.681H208.836V172.629Z" fill="#212121"/>
<path d="M235.991 172.629H226.94V181.681H235.991V172.629Z" fill="#212121"/>
<path d="M245.043 172.629H235.991V181.681H245.043V172.629Z" fill="#212121"/>
<path d="M263.147 172.629H254.095V181.681H263.147V172.629Z" fill="#212121"/>
<path d="M27.8017 181.681H18.75V190.733H27.8017V181.681Z" fill="#212121"/>
<path d="M36.8534 181.681H27.8017V190.733H36.8534V181.681Z" fill="#212121"/>
<path d="M45.9052 181.681H36.8534V190.733H45.9052V181.681Z" fill="#212121"/>
<path d="M64.0086 181.681H54.9569V190.733H64.0086V181.681Z" fill="#212121"/>
<path d="M82.1121 181.681H73.0603V190.733H82.1121V181.681Z" fill="#212121"/>
<path d="M145.474 181.681H136.422V190.733H145.474V181.681Z" fill="#212121"/>
<path d="M163.578 181.681H154.526V190.733H163.578V181.681Z" fill="#212121"/>
<path d="M181.681 181.681H172.629V190.733H181.681V181.681Z" fill="#212121"/>
<path d="M190.733 181.681H181.681V190.733H190.733V181.681Z" fill="#212121"/>
<path d="M226.94 181.681H217.888V190.733H226.94V181.681Z" fill="#212121"/>
<path d="M235.991 181.681H226.94V190.733H235.991V181.681Z" fill="#212121"/>
<path d="M263.147 181.681H254.095V190.733H263.147V181.681Z" fill="#212121"/>
<path d="M27.8017 190.733H18.75V199.785H27.8017V190.733Z" fill="#212121"/>
<path d="M36.8534 190.733H27.8017V199.785H36.8534V190.733Z" fill="#212121"/>
<path d="M54.9569 190.733H45.9052V199.785H54.9569V190.733Z" fill="#212121"/>
<path d="M64.0086 190.733H54.9569V199.785H64.0086V190.733Z" fill="#212121"/>
<path d="M91.1638 190.733H82.1121V199.785H91.1638V190.733Z" fill="#212121"/>
<path d="M109.267 190.733H100.216V199.785H109.267V190.733Z" fill="#212121"/>
<path d="M127.371 190.733H118.319V199.785H127.371V190.733Z" fill="#212121"/>
<path d="M154.526 190.733H145.474V199.785H154.526V190.733Z" fill="#212121"/>
<path d="M163.578 190.733H154.526V199.785H163.578V190.733Z" fill="#212121"/>
<path d="M181.681 190.733H172.629V199.785H181.681V190.733Z" fill="#212121"/>
<path d="M190.733 190.733H181.681V199.785H190.733V190.733Z" fill="#212121"/>
<path d="M226.94 190.733H217.888V199.785H226.94V190.733Z" fill="#212121"/>
<path d="M245.043 190.733H235.991V199.785H245.043V190.733Z" fill="#212121"/>
<path d="M263.147 190.733H254.095V199.785H263.147V190.733Z" fill="#212121"/>
<path d="M281.25 190.733H272.198V199.785H281.25V190.733Z" fill="#212121"/>
<path d="M45.9052 199.785H36.8534V208.836H45.9052V199.785Z" fill="#212121"/>
<path d="M54.9569 199.785H45.9052V208.836H54.9569V199.785Z" fill="#212121"/>
<path d="M64.0086 199.785H54.9569V208.836H64.0086V199.785Z" fill="#212121"/>
<path d="M73.0603 199.785H64.0086V208.836H73.0603V199.785Z" fill="#212121"/>
<path d="M82.1121 199.785H73.0603V208.836H82.1121V199.785Z" fill="#212121"/>
<path d="M127.371 199.785H118.319V208.836H127.371V199.785Z" fill="#212121"/>
<path d="M136.422 199.785H127.371V208.836H136.422V199.785Z" fill="#212121"/>
<path d="M154.526 199.785H145.474V208.836H154.526V199.785Z" fill="#212121"/>
<path d="M163.578 199.785H154.526V208.836H163.578V199.785Z" fill="#212121"/>
<path d="M172.629 199.785H163.578V208.836H172.629V199.785Z" fill="#212121"/>
<path d="M181.681 199.785H172.629V208.836H181.681V199.785Z" fill="#212121"/>
<path d="M190.733 199.785H181.681V208.836H190.733V199.785Z" fill="#212121"/>
<path d="M208.836 199.785H199.785V208.836H208.836V199.785Z" fill="#212121"/>
<path d="M217.888 199.785H208.836V208.836H217.888V199.785Z" fill="#212121"/>
<path d="M226.94 199.785H217.888V208.836H226.94V199.785Z" fill="#212121"/>
<path d="M235.991 199.785H226.94V208.836H235.991V199.785Z" fill="#212121"/>
<path d="M245.043 199.785H235.991V208.836H245.043V199.785Z" fill="#212121"/>
<path d="M254.095 199.785H245.043V208.836H254.095V199.785Z" fill="#212121"/>
<path d="M281.25 199.785H272.198V208.836H281.25V199.785Z" fill="#212121"/>
<path d="M100.216 208.836H91.1638V217.888H100.216V208.836Z" fill="#212121"/>
<path d="M154.526 208.836H145.474V217.888H154.526V208.836Z" fill="#212121"/>
<path d="M163.578 208.836H154.526V217.888H163.578V208.836Z" fill="#212121"/>
<path d="M199.785 208.836H190.733V217.888H199.785V208.836Z" fill="#212121"/>
<path d="M208.836 208.836H199.785V217.888H208.836V208.836Z" fill="#212121"/>
<path d="M245.043 208.836H235.991V217.888H245.043V208.836Z" fill="#212121"/>
<path d="M254.095 208.836H245.043V217.888H254.095V208.836Z" fill="#212121"/>
<path d="M263.147 208.836H254.095V217.888H263.147V208.836Z" fill="#212121"/>
<path d="M272.198 208.836H263.147V217.888H272.198V208.836Z" fill="#212121"/>
<path d="M27.8017 217.888H18.75V226.94H27.8017V217.888Z" fill="#212121"/>
<path d="M36.8534 217.888H27.8017V226.94H36.8534V217.888Z" fill="#212121"/>
<path d="M45.9052 217.888H36.8534V226.94H45.9052V217.888Z" fill="#212121"/>
<path d="M54.9569 217.888H45.9052V226.94H54.9569V217.888Z" fill="#212121"/>
<path d="M64.0086 217.888H54.9569V226.94H64.0086V217.888Z" fill="#212121"/>
<path d="M73.0603 217.888H64.0086V226.94H73.0603V217.888Z" fill="#212121"/>
<path d="M82.1121 217.888H73.0603V226.94H82.1121V217.888Z" fill="#212121"/>
<path d="M136.422 217.888H127.371V226.94H136.422V217.888Z" fill="#212121"/>
<path d="M145.474 217.888H136.422V226.94H145.474V217.888Z" fill="#212121"/>
<path d="M163.578 217.888H154.526V226.94H163.578V217.888Z" fill="#212121"/>
<path d="M190.733 217.888H181.681V226.94H190.733V217.888Z" fill="#212121"/>
<path d="M199.785 217.888H190.733V226.94H199.785V217.888Z" fill="#212121"/>
<path d="M208.836 217.888H199.785V226.94H208.836V217.888Z" fill="#212121"/>
<path d="M226.94 217.888H217.888V226.94H226.94V217.888Z" fill="#212121"/>
<path d="M245.043 217.888H235.991V226.94H245.043V217.888Z" fill="#212121"/>
<path d="M27.8017 226.94H18.75V235.991H27.8017V226.94Z" fill="#212121"/>
<path d="M82.1121 226.94H73.0603V235.991H82.1121V226.94Z" fill="#212121"/>
<path d="M109.267 226.94H100.216V235.991H109.267V226.94Z" fill="#212121"/>
<path d="M118.319 226.94H109.267V235.991H118.319V226.94Z" fill="#212121"/>
<path d="M136.422 226.94H127.371V235.991H136.422V226.94Z" fill="#212121"/>
<path d="M154.526 226.94H145.474V235.991H154.526V226.94Z" fill="#212121"/>
<path d="M163.578 226.94H154.526V235.991H163.578V226.94Z" fill="#212121"/>
<path d="M199.785 226.94H190.733V235.991H199.785V226.94Z" fill="#212121"/>
<path d="M208.836 226.94H199.785V235.991H208.836V226.94Z" fill="#212121"/>
<path d="M245.043 226.94H235.991V235.991H245.043V226.94Z" fill="#212121"/>
<path d="M254.095 226.94H245.043V235.991H254.095V226.94Z" fill="#212121"/>
<path d="M263.147 226.94H254.095V235.991H263.147V226.94Z" fill="#212121"/>
<path d="M272.198 226.94H263.147V235.991H272.198V226.94Z" fill="#212121"/>
<path d="M27.8017 235.991H18.75V245.043H27.8017V235.991Z" fill="#212121"/>
<path d="M45.9052 235.991H36.8534V245.043H45.9052V235.991Z" fill="#212121"/>
<path d="M54.9569 235.991H45.9052V245.043H54.9569V235.991Z" fill="#212121"/>
<path d="M64.0086 235.991H54.9569V245.043H64.0086V235.991Z" fill="#212121"/>
<path d="M82.1121 235.991H73.0603V245.043H82.1121V235.991Z" fill="#212121"/>
<path d="M100.216 235.991H91.1638V245.043H100.216V235.991Z" fill="#212121"/>
<path d="M109.267 235.991H100.216V245.043H109.267V235.991Z" fill="#212121"/>
<path d="M145.474 235.991H136.422V245.043H145.474V235.991Z" fill="#212121"/>
<path d="M163.578 235.991H154.526V245.043H163.578V235.991Z" fill="#212121"/>
<path d="M181.681 235.991H172.629V245.043H181.681V235.991Z" fill="#212121"/>
<path d="M199.785 235.991H190.733V245.043H199.785V235.991Z" fill="#212121"/>
<path d="M208.836 235.991H199.785V245.043H208.836V235.991Z" fill="#212121"/>
<path d="M217.888 235.991H208.836V245.043H217.888V235.991Z" fill="#212121"/>
<path d="M226.94 235.991H217.888V245.043H226.94V235.991Z" fill="#212121"/>
<path d="M235.991 235.991H226.94V245.043H235.991V235.991Z" fill="#212121"/>
<path d="M245.043 235.991H235.991V245.043H245.043V235.991Z" fill="#212121"/>
<path d="M263.147 235.991H254.095V245.043H263.147V235.991Z" fill="#212121"/>
<path d="M281.25 235.991H272.198V245.043H281.25V235.991Z" fill="#212121"/>
<path d="M27.8017 245.043H18.75V254.095H27.8017V245.043Z" fill="#212121"/>
<path d="M45.9052 245.043H36.8534V254.095H45.9052V245.043Z" fill="#212121"/>
<path d="M54.9569 245.043H45.9052V254.095H54.9569V245.043Z" fill="#212121"/>
<path d="M64.0086 245.043H54.9569V254.095H64.0086V245.043Z" fill="#212121"/>
<path d="M82.1121 245.043H73.0603V254.095H82.1121V245.043Z" fill="#212121"/>
<path d="M127.371 245.043H118.319V254.095H127.371V245.043Z" fill="#212121"/>
<path d="M145.474 245.043H136.422V254.095H145.474V245.043Z" fill="#212121"/>
<path d="M172.629 245.043H163.578V254.095H172.629V245.043Z" fill="#212121"/>
<path d="M190.733 245.043H181.681V254.095H190.733V245.043Z" fill="#212121"/>
<path d="M199.785 245.043H190.733V254.095H199.785V245.043Z" fill="#212121"/>
<path d="M208.836 245.043H199.785V254.095H208.836V245.043Z" fill="#212121"/>
<path d="M217.888 245.043H208.836V254.095H217.888V245.043Z" fill="#212121"/>
<path d="M226.94 245.043H217.888V254.095H226.94V245.043Z" fill="#212121"/>
<path d="M245.043 245.043H235.991V254.095H245.043V245.043Z" fill="#212121"/>
<path d="M272.198 245.043H263.147V254.095H272.198V245.043Z" fill="#212121"/>
<path d="M281.25 245.043H272.198V254.095H281.25V245.043Z" fill="#212121"/>
<path d="M27.8017 254.095H18.75V263.147H27.8017V254.095Z" fill="#212121"/>
<path d="M45.9052 254.095H36.8534V263.147H45.9052V254.095Z" fill="#212121"/>
<path d="M54.9569 254.095H45.9052V263.147H54.9569V254.095Z" fill="#212121"/>
<path d="M64.0086 254.095H54.9569V263.147H64.0086V254.095Z" fill="#212121"/>
<path d="M82.1121 254.095H73.0603V263.147H82.1121V254.095Z" fill="#212121"/>
<path d="M100.216 254.095H91.1638V263.147H100.216V254.095Z" fill="#212121"/>
<path d="M109.267 254.095H100.216V263.147H109.267V254.095Z" fill="#212121"/>
<path d="M118.319 254.095H109.267V263.147H118.319V254.095Z" fill="#212121"/>
<path d="M145.474 254.095H136.422V263.147H145.474V254.095Z" fill="#212121"/>
<path d="M154.526 254.095H145.474V263.147H154.526V254.095Z" fill="#212121"/>
<path d="M163.578 254.095H154.526V263.147H163.578V254.095Z" fill="#212121"/>
<path d="M181.681 254.095H172.629V263.147H181.681V254.095Z" fill="#212121"/>
<path d="M199.785 254.095H190.733V263.147H199.785V254.095Z" fill="#212121"/>
<path d="M208.836 254.095H199.785V263.147H208.836V254.095Z" fill="#212121"/>
<path d="M263.147 254.095H254.095V263.147H263.147V254.095Z" fill="#212121"/>
<path d="M272.198 254.095H263.147V263.147H272.198V254.095Z" fill="#212121"/>
<path d="M27.8017 263.147H18.75V272.198H27.8017V263.147Z" fill="#212121"/>
<path d="M82.1121 263.147H73.0603V272.198H82.1121V263.147Z" fill="#212121"/>
<path d="M100.216 263.147H91.1638V272.198H100.216V263.147Z" fill="#212121"/>
<path d="M109.267 263.147H100.216V272.198H109.267V263.147Z" fill="#212121"/>
<path d="M145.474 263.147H136.422V272.198H145.474V263.147Z" fill="#212121"/>
<path d="M181.681 263.147H172.629V272.198H181.681V263.147Z" fill="#212121"/>
<path d="M208.836 263.147H199.785V272.198H208.836V263.147Z" fill="#212121"/>
<path d="M254.095 263.147H245.043V272.198H254.095V263.147Z" fill="#212121"/>
<path d="M263.147 263.147H254.095V272.198H263.147V263.147Z" fill="#212121"/>
<path d="M27.8017 272.198H18.75V281.25H27.8017V272.198Z" fill="#212121"/>
<path d="M36.8534 272.198H27.8017V281.25H36.8534V272.198Z" fill="#212121"/>
<path d="M45.9052 272.198H36.8534V281.25H45.9052V272.198Z" fill="#212121"/>
<path d="M54.9569 272.198H45.9052V281.25H54.9569V272.198Z" fill="#212121"/>
<path d="M64.0086 272.198H54.9569V281.25H64.0086V272.198Z" fill="#212121"/>
<path d="M73.0603 272.198H64.0086V281.25H73.0603V272.198Z" fill="#212121"/>
<path d="M82.1121 272.198H73.0603V281.25H82.1121V272.198Z" fill="#212121"/>
<path d="M100.216 272.198H91.1638V281.25H100.216V272.198Z" fill="#212121"/>
<path d="M127.371 272.198H118.319V281.25H127.371V272.198Z" fill="#212121"/>
<path d="M136.422 272.198H127.371V281.25H136.422V272.198Z" fill="#212121"/>
<path d="M145.474 272.198H136.422V281.25H145.474V272.198Z" fill="#212121"/>
<path d="M154.526 272.198H145.474V281.25H154.526V272.198Z" fill="#212121"/>
<path d="M163.578 272.198H154.526V281.25H163.578V272.198Z" fill="#212121"/>
<path d="M190.733 272.198H181.681V281.25H190.733V272.198Z" fill="#212121"/>
<path d="M263.147 272.198H254.095V281.25H263.147V272.198Z" fill="#212121"/>
<path d="M272.198 272.198H263.147V281.25H272.198V272.198Z" fill="#212121"/>
</g>
<path d="M1.75736 298.243L3.17157 296.828L1.75736 298.243ZM298.243 298.243L296.828 296.828L298.243 298.243ZM298.243 1.75736L296.828 3.17157L298.243 1.75736ZM1.75736 1.75736L0.343146 0.343146L1.75736 1.75736ZM12 0V2H288V0V-2H12V0ZM300 12H298V288H300H302V12H300ZM288 300V298H12V300V302H288V300ZM0 288H2V12H0H-2V288H0ZM12 300V298C9.11504 298 7.15251 297.996 5.68287 297.798C4.27076 297.608 3.61671 297.274 3.17157 296.828L1.75736 298.243L0.343146 299.657C1.65536 300.969 3.29421 301.513 5.14988 301.762C6.948 302.004 9.22812 302 12 302V300ZM0 288H-2C-2 290.772 -2.00425 293.052 -1.7625 294.85C-1.51301 296.706 -0.969072 298.345 0.343146 299.657L1.75736 298.243L3.17157 296.828C2.72643 296.383 2.39169 295.729 2.20184 294.317C2.00425 292.848 2 290.885 2 288H0ZM300 288H298C298 290.885 297.996 292.848 297.798 294.317C297.608 295.729 297.274 296.383 296.828 296.828L298.243 298.243L299.657 299.657C300.969 298.345 301.513 296.706 301.762 294.85C302.004 293.052 302 290.772 302 288H300ZM288 300V302C290.772 302 293.052 302.004 294.85 301.762C296.706 301.513 298.345 300.969 299.657 299.657L298.243 298.243L296.828 296.828C296.383 297.274 295.729 297.608 294.317 297.798C292.848 297.996 290.885 298 288 298V300ZM288 0V2C290.885 2 292.848 2.00425 294.317 2.20184C295.729 2.39169 296.383 2.72643 296.828 3.17157L298.243 1.75736L299.657 0.343146C298.345 -0.969072 296.706 -1.51301 294.85 -1.7625C293.052 -2.00425 290.772 -2 288 -2V0ZM300 12H302C302 9.22811 302.004 6.948 301.762 5.14987C301.513 3.29421 300.969 1.65536 299.657 0.343146L298.243 1.75736L296.828 3.17157C297.274 3.61671 297.608 4.27076 297.798 5.68286C297.996 7.1525 298 9.11503 298 12H300ZM12 0V-2C9.22811 -2 6.948 -2.00425 5.14987 -1.7625C3.29421 -1.51301 1.65536 -0.969072 0.343146 0.343146L1.75736 1.75736L3.17157 3.17157C3.61671 2.72643 4.27076 2.39169 5.68286 2.20184C7.1525 2.00425 9.11503 2 12 2V0ZM0 12H2C2 9.11504 2.00425 7.15251 2.20184 5.68287C2.39169 4.27076 2.72643 3.61671 3.17157 3.17157L1.75736 1.75736L0.343146 0.343146C-0.969072 1.65536 -1.51301 3.29421 -1.7625 5.14988C-2.00425 6.948 -2 9.22812 -2 12H0Z" fill="#EEEEEE" mask="url(#path-1-inside-1_282_6171)"/>
<defs>
<clipPath id="clip0_282_6171">
<path d="M0 12C0 6.34315 0 3.51472 1.75736 1.75736C3.51472 0 6.34315 0 12 0H288C293.657 0 296.485 0 298.243 1.75736C300 3.51472 300 6.34315 300 12V288C300 293.657 300 296.485 298.243 298.243C296.485 300 293.657 300 288 300H12C6.34315 300 3.51472 300 1.75736 298.243C0 296.485 0 293.657 0 288V12Z" fill="white"/>
</clipPath>
</defs>
</svg>
