<svg width="318" height="251" viewBox="0 0 318 251" fill="none" xmlns="http://www.w3.org/2000/svg">
<g clip-path="url(#clip0_282_5857)">
<mask id="path-1-inside-1_282_5857" fill="white">
<path d="M0 12.0068C0 6.34673 0 3.5167 1.75835 1.75835C3.5167 0 6.34673 0 12.0068 0H305.614C311.274 0 314.104 0 315.863 1.75835C317.621 3.5167 317.621 6.34673 317.621 12.0068V238.993C317.621 244.653 317.621 247.483 315.863 249.242C314.104 251 311.274 251 305.614 251H12.0068C6.34673 251 3.5167 251 1.75835 249.242C0 247.483 0 244.653 0 238.993V12.0068Z"/>
</mask>
<path d="M317.621 0H0V251H317.621V0Z" fill="white"/>
<path d="M29.4347 15.6876H19.8513V23.2608H29.4347V15.6876Z" fill="#212121"/>
<path d="M39.0181 15.6876H29.4347V23.2608H39.0181V15.6876Z" fill="#212121"/>
<path d="M48.6015 15.6876H39.0181V23.2608H48.6015V15.6876Z" fill="#212121"/>
<path d="M58.1849 15.6876H48.6015V23.2608H58.1849V15.6876Z" fill="#212121"/>
<path d="M67.7683 15.6876H58.1849V23.2608H67.7683V15.6876Z" fill="#212121"/>
<path d="M77.3517 15.6876H67.7683V23.2608H77.3517V15.6876Z" fill="#212121"/>
<path d="M86.935 15.6876H77.3517V23.2608H86.935V15.6876Z" fill="#212121"/>
<path d="M106.102 15.6876H96.5184V23.2608H106.102V15.6876Z" fill="#212121"/>
<path d="M134.852 15.6876H125.269V23.2608H134.852V15.6876Z" fill="#212121"/>
<path d="M154.019 15.6876H144.435V23.2608H154.019V15.6876Z" fill="#212121"/>
<path d="M163.602 15.6876H154.019V23.2608H163.602V15.6876Z" fill="#212121"/>
<path d="M182.769 15.6876H173.186V23.2608H182.769V15.6876Z" fill="#212121"/>
<path d="M192.352 15.6876H182.769V23.2608H192.352V15.6876Z" fill="#212121"/>
<path d="M201.936 15.6876H192.352V23.2608H201.936V15.6876Z" fill="#212121"/>
<path d="M211.519 15.6876H201.936V23.2608H211.519V15.6876Z" fill="#212121"/>
<path d="M221.103 15.6876H211.519V23.2608H221.103V15.6876Z" fill="#212121"/>
<path d="M240.269 15.6876H230.686V23.2608H240.269V15.6876Z" fill="#212121"/>
<path d="M249.853 15.6876H240.269V23.2608H249.853V15.6876Z" fill="#212121"/>
<path d="M259.436 15.6876H249.853V23.2608H259.436V15.6876Z" fill="#212121"/>
<path d="M269.02 15.6876H259.436V23.2608H269.02V15.6876Z" fill="#212121"/>
<path d="M278.603 15.6876H269.02V23.2608H278.603V15.6876Z" fill="#212121"/>
<path d="M288.186 15.6876H278.603V23.2608H288.186V15.6876Z" fill="#212121"/>
<path d="M297.77 15.6876H288.186V23.2608H297.77V15.6876Z" fill="#212121"/>
<path d="M29.4347 23.2608H19.8513V30.8341H29.4347V23.2608Z" fill="#212121"/>
<path d="M86.935 23.2608H77.3517V30.8341H86.935V23.2608Z" fill="#212121"/>
<path d="M134.852 23.2608H125.269V30.8341H134.852V23.2608Z" fill="#212121"/>
<path d="M144.435 23.2608H134.852V30.8341H144.435V23.2608Z" fill="#212121"/>
<path d="M163.602 23.2608H154.019V30.8341H163.602V23.2608Z" fill="#212121"/>
<path d="M173.186 23.2608H163.602V30.8341H173.186V23.2608Z" fill="#212121"/>
<path d="M192.352 23.2608H182.769V30.8341H192.352V23.2608Z" fill="#212121"/>
<path d="M201.936 23.2608H192.352V30.8341H201.936V23.2608Z" fill="#212121"/>
<path d="M211.519 23.2608H201.936V30.8341H211.519V23.2608Z" fill="#212121"/>
<path d="M221.103 23.2608H211.519V30.8341H221.103V23.2608Z" fill="#212121"/>
<path d="M240.269 23.2608H230.686V30.8341H240.269V23.2608Z" fill="#212121"/>
<path d="M297.77 23.2608H288.186V30.8341H297.77V23.2608Z" fill="#212121"/>
<path d="M29.4347 30.8341H19.8513V38.4074H29.4347V30.8341Z" fill="#212121"/>
<path d="M48.6015 30.8341H39.0181V38.4074H48.6015V30.8341Z" fill="#212121"/>
<path d="M58.1849 30.8341H48.6015V38.4074H58.1849V30.8341Z" fill="#212121"/>
<path d="M67.7683 30.8341H58.1849V38.4074H67.7683V30.8341Z" fill="#212121"/>
<path d="M86.935 30.8341H77.3517V38.4074H86.935V30.8341Z" fill="#212121"/>
<path d="M115.685 30.8341H106.102V38.4074H115.685V30.8341Z" fill="#212121"/>
<path d="M144.435 30.8341H134.852V38.4074H144.435V30.8341Z" fill="#212121"/>
<path d="M154.019 30.8341H144.435V38.4074H154.019V30.8341Z" fill="#212121"/>
<path d="M163.602 30.8341H154.019V38.4074H163.602V30.8341Z" fill="#212121"/>
<path d="M201.936 30.8341H192.352V38.4074H201.936V30.8341Z" fill="#212121"/>
<path d="M240.269 30.8341H230.686V38.4074H240.269V30.8341Z" fill="#212121"/>
<path d="M259.436 30.8341H249.853V38.4074H259.436V30.8341Z" fill="#212121"/>
<path d="M269.02 30.8341H259.436V38.4074H269.02V30.8341Z" fill="#212121"/>
<path d="M278.603 30.8341H269.02V38.4074H278.603V30.8341Z" fill="#212121"/>
<path d="M297.77 30.8341H288.186V38.4074H297.77V30.8341Z" fill="#212121"/>
<path d="M29.4347 38.4074H19.8513V45.9807H29.4347V38.4074Z" fill="#212121"/>
<path d="M48.6015 38.4074H39.0181V45.9807H48.6015V38.4074Z" fill="#212121"/>
<path d="M58.1849 38.4074H48.6015V45.9807H58.1849V38.4074Z" fill="#212121"/>
<path d="M67.7683 38.4074H58.1849V45.9807H67.7683V38.4074Z" fill="#212121"/>
<path d="M86.935 38.4074H77.3517V45.9807H86.935V38.4074Z" fill="#212121"/>
<path d="M106.102 38.4074H96.5184V45.9807H106.102V38.4074Z" fill="#212121"/>
<path d="M115.685 38.4074H106.102V45.9807H115.685V38.4074Z" fill="#212121"/>
<path d="M125.269 38.4074H115.685V45.9807H125.269V38.4074Z" fill="#212121"/>
<path d="M134.852 38.4074H125.269V45.9807H134.852V38.4074Z" fill="#212121"/>
<path d="M154.019 38.4074H144.435V45.9807H154.019V38.4074Z" fill="#212121"/>
<path d="M163.602 38.4074H154.019V45.9807H163.602V38.4074Z" fill="#212121"/>
<path d="M182.769 38.4074H173.186V45.9807H182.769V38.4074Z" fill="#212121"/>
<path d="M201.936 38.4074H192.352V45.9807H201.936V38.4074Z" fill="#212121"/>
<path d="M240.269 38.4074H230.686V45.9807H240.269V38.4074Z" fill="#212121"/>
<path d="M259.436 38.4074H249.853V45.9807H259.436V38.4074Z" fill="#212121"/>
<path d="M269.02 38.4074H259.436V45.9807H269.02V38.4074Z" fill="#212121"/>
<path d="M278.603 38.4074H269.02V45.9807H278.603V38.4074Z" fill="#212121"/>
<path d="M297.77 38.4074H288.186V45.9807H297.77V38.4074Z" fill="#212121"/>
<path d="M29.4347 45.9807H19.8513V53.5539H29.4347V45.9807Z" fill="#212121"/>
<path d="M48.6015 45.9807H39.0181V53.5539H48.6015V45.9807Z" fill="#212121"/>
<path d="M58.1849 45.9807H48.6015V53.5539H58.1849V45.9807Z" fill="#212121"/>
<path d="M67.7683 45.9807H58.1849V53.5539H67.7683V45.9807Z" fill="#212121"/>
<path d="M86.935 45.9807H77.3517V53.5539H86.935V45.9807Z" fill="#212121"/>
<path d="M106.102 45.9807H96.5184V53.5539H106.102V45.9807Z" fill="#212121"/>
<path d="M115.685 45.9807H106.102V53.5539H115.685V45.9807Z" fill="#212121"/>
<path d="M125.269 45.9807H115.685V53.5539H125.269V45.9807Z" fill="#212121"/>
<path d="M134.852 45.9807H125.269V53.5539H134.852V45.9807Z" fill="#212121"/>
<path d="M154.019 45.9807H144.435V53.5539H154.019V45.9807Z" fill="#212121"/>
<path d="M182.769 45.9807H173.186V53.5539H182.769V45.9807Z" fill="#212121"/>
<path d="M240.269 45.9807H230.686V53.5539H240.269V45.9807Z" fill="#212121"/>
<path d="M259.436 45.9807H249.853V53.5539H259.436V45.9807Z" fill="#212121"/>
<path d="M269.02 45.9807H259.436V53.5539H269.02V45.9807Z" fill="#212121"/>
<path d="M278.603 45.9807H269.02V53.5539H278.603V45.9807Z" fill="#212121"/>
<path d="M297.77 45.9807H288.186V53.5539H297.77V45.9807Z" fill="#212121"/>
<path d="M29.4347 53.5539H19.8513V61.1272H29.4347V53.5539Z" fill="#212121"/>
<path d="M86.935 53.5539H77.3517V61.1272H86.935V53.5539Z" fill="#212121"/>
<path d="M106.102 53.5539H96.5184V61.1272H106.102V53.5539Z" fill="#212121"/>
<path d="M115.685 53.5539H106.102V61.1272H115.685V53.5539Z" fill="#212121"/>
<path d="M134.852 53.5539H125.269V61.1272H134.852V53.5539Z" fill="#212121"/>
<path d="M154.019 53.5539H144.435V61.1272H154.019V53.5539Z" fill="#212121"/>
<path d="M182.769 53.5539H173.186V61.1272H182.769V53.5539Z" fill="#212121"/>
<path d="M211.519 53.5539H201.936V61.1272H211.519V53.5539Z" fill="#212121"/>
<path d="M240.269 53.5539H230.686V61.1272H240.269V53.5539Z" fill="#212121"/>
<path d="M297.77 53.5539H288.186V61.1272H297.77V53.5539Z" fill="#212121"/>
<path d="M29.4347 61.1272H19.8513V68.7005H29.4347V61.1272Z" fill="#212121"/>
<path d="M39.0181 61.1272H29.4347V68.7005H39.0181V61.1272Z" fill="#212121"/>
<path d="M48.6015 61.1272H39.0181V68.7005H48.6015V61.1272Z" fill="#212121"/>
<path d="M58.1849 61.1272H48.6015V68.7005H58.1849V61.1272Z" fill="#212121"/>
<path d="M67.7683 61.1272H58.1849V68.7005H67.7683V61.1272Z" fill="#212121"/>
<path d="M77.3517 61.1272H67.7683V68.7005H77.3517V61.1272Z" fill="#212121"/>
<path d="M86.935 61.1272H77.3517V68.7005H86.935V61.1272Z" fill="#212121"/>
<path d="M106.102 61.1272H96.5184V68.7005H106.102V61.1272Z" fill="#212121"/>
<path d="M125.269 61.1272H115.685V68.7005H125.269V61.1272Z" fill="#212121"/>
<path d="M144.435 61.1272H134.852V68.7005H144.435V61.1272Z" fill="#212121"/>
<path d="M163.602 61.1272H154.019V68.7005H163.602V61.1272Z" fill="#212121"/>
<path d="M182.769 61.1272H173.186V68.7005H182.769V61.1272Z" fill="#212121"/>
<path d="M201.936 61.1272H192.352V68.7005H201.936V61.1272Z" fill="#212121"/>
<path d="M221.103 61.1272H211.519V68.7005H221.103V61.1272Z" fill="#212121"/>
<path d="M240.269 61.1272H230.686V68.7005H240.269V61.1272Z" fill="#212121"/>
<path d="M249.853 61.1272H240.269V68.7005H249.853V61.1272Z" fill="#212121"/>
<path d="M259.436 61.1272H249.853V68.7005H259.436V61.1272Z" fill="#212121"/>
<path d="M269.02 61.1272H259.436V68.7005H269.02V61.1272Z" fill="#212121"/>
<path d="M278.603 61.1272H269.02V68.7005H278.603V61.1272Z" fill="#212121"/>
<path d="M288.186 61.1272H278.603V68.7005H288.186V61.1272Z" fill="#212121"/>
<path d="M297.77 61.1272H288.186V68.7005H297.77V61.1272Z" fill="#212121"/>
<path d="M106.102 68.7005H96.5184V76.2738H106.102V68.7005Z" fill="#212121"/>
<path d="M115.685 68.7005H106.102V76.2738H115.685V68.7005Z" fill="#212121"/>
<path d="M163.602 68.7005H154.019V76.2738H163.602V68.7005Z" fill="#212121"/>
<path d="M182.769 68.7005H173.186V76.2738H182.769V68.7005Z" fill="#212121"/>
<path d="M201.936 68.7005H192.352V76.2738H201.936V68.7005Z" fill="#212121"/>
<path d="M221.103 68.7005H211.519V76.2738H221.103V68.7005Z" fill="#212121"/>
<path d="M29.4347 76.2738H19.8513V83.847H29.4347V76.2738Z" fill="#212121"/>
<path d="M39.0181 76.2738H29.4347V83.847H39.0181V76.2738Z" fill="#212121"/>
<path d="M48.6015 76.2738H39.0181V83.847H48.6015V76.2738Z" fill="#212121"/>
<path d="M67.7683 76.2738H58.1849V83.847H67.7683V76.2738Z" fill="#212121"/>
<path d="M86.935 76.2738H77.3517V83.847H86.935V76.2738Z" fill="#212121"/>
<path d="M106.102 76.2738H96.5184V83.847H106.102V76.2738Z" fill="#212121"/>
<path d="M115.685 76.2738H106.102V83.847H115.685V76.2738Z" fill="#212121"/>
<path d="M144.435 76.2738H134.852V83.847H144.435V76.2738Z" fill="#212121"/>
<path d="M154.019 76.2738H144.435V83.847H154.019V76.2738Z" fill="#212121"/>
<path d="M163.602 76.2738H154.019V83.847H163.602V76.2738Z" fill="#212121"/>
<path d="M173.186 76.2738H163.602V83.847H173.186V76.2738Z" fill="#212121"/>
<path d="M192.352 76.2738H182.769V83.847H192.352V76.2738Z" fill="#212121"/>
<path d="M201.936 76.2738H192.352V83.847H201.936V76.2738Z" fill="#212121"/>
<path d="M211.519 76.2738H201.936V83.847H211.519V76.2738Z" fill="#212121"/>
<path d="M221.103 76.2738H211.519V83.847H221.103V76.2738Z" fill="#212121"/>
<path d="M230.686 76.2738H221.103V83.847H230.686V76.2738Z" fill="#212121"/>
<path d="M240.269 76.2738H230.686V83.847H240.269V76.2738Z" fill="#212121"/>
<path d="M249.853 76.2738H240.269V83.847H249.853V76.2738Z" fill="#212121"/>
<path d="M259.436 76.2738H249.853V83.847H259.436V76.2738Z" fill="#212121"/>
<path d="M269.02 76.2738H259.436V83.847H269.02V76.2738Z" fill="#212121"/>
<path d="M297.77 76.2738H288.186V83.847H297.77V76.2738Z" fill="#212121"/>
<path d="M29.4347 83.847H19.8513V91.4203H29.4347V83.847Z" fill="#212121"/>
<path d="M115.685 83.847H106.102V91.4203H115.685V83.847Z" fill="#212121"/>
<path d="M144.435 83.847H134.852V91.4203H144.435V83.847Z" fill="#212121"/>
<path d="M163.602 83.847H154.019V91.4203H163.602V83.847Z" fill="#212121"/>
<path d="M173.186 83.847H163.602V91.4203H173.186V83.847Z" fill="#212121"/>
<path d="M182.769 83.847H173.186V91.4203H182.769V83.847Z" fill="#212121"/>
<path d="M211.519 83.847H201.936V91.4203H211.519V83.847Z" fill="#212121"/>
<path d="M221.103 83.847H211.519V91.4203H221.103V83.847Z" fill="#212121"/>
<path d="M240.269 83.847H230.686V91.4203H240.269V83.847Z" fill="#212121"/>
<path d="M249.853 83.847H240.269V91.4203H249.853V83.847Z" fill="#212121"/>
<path d="M259.436 83.847H249.853V91.4203H259.436V83.847Z" fill="#212121"/>
<path d="M269.02 83.847H259.436V91.4203H269.02V83.847Z" fill="#212121"/>
<path d="M278.603 83.847H269.02V91.4203H278.603V83.847Z" fill="#212121"/>
<path d="M288.186 83.847H278.603V91.4203H288.186V83.847Z" fill="#212121"/>
<path d="M39.0181 91.4203H29.4347V98.9936H39.0181V91.4203Z" fill="#212121"/>
<path d="M67.7683 91.4203H58.1849V98.9936H67.7683V91.4203Z" fill="#212121"/>
<path d="M77.3517 91.4203H67.7683V98.9936H77.3517V91.4203Z" fill="#212121"/>
<path d="M86.935 91.4203H77.3517V98.9936H86.935V91.4203Z" fill="#212121"/>
<path d="M96.5184 91.4203H86.935V98.9936H96.5184V91.4203Z" fill="#212121"/>
<path d="M106.102 91.4203H96.5184V98.9936H106.102V91.4203Z" fill="#212121"/>
<path d="M115.685 91.4203H106.102V98.9936H115.685V91.4203Z" fill="#212121"/>
<path d="M134.852 91.4203H125.269V98.9936H134.852V91.4203Z" fill="#212121"/>
<path d="M163.602 91.4203H154.019V98.9936H163.602V91.4203Z" fill="#212121"/>
<path d="M173.186 91.4203H163.602V98.9936H173.186V91.4203Z" fill="#212121"/>
<path d="M182.769 91.4203H173.186V98.9936H182.769V91.4203Z" fill="#212121"/>
<path d="M192.352 91.4203H182.769V98.9936H192.352V91.4203Z" fill="#212121"/>
<path d="M221.103 91.4203H211.519V98.9936H221.103V91.4203Z" fill="#212121"/>
<path d="M240.269 91.4203H230.686V98.9936H240.269V91.4203Z" fill="#212121"/>
<path d="M259.436 91.4203H249.853V98.9936H259.436V91.4203Z" fill="#212121"/>
<path d="M297.77 91.4203H288.186V98.9936H297.77V91.4203Z" fill="#212121"/>
<path d="M29.4347 98.9936H19.8513V106.567H29.4347V98.9936Z" fill="#212121"/>
<path d="M39.0181 98.9936H29.4347V106.567H39.0181V98.9936Z" fill="#212121"/>
<path d="M77.3517 98.9936H67.7683V106.567H77.3517V98.9936Z" fill="#212121"/>
<path d="M115.685 98.9936H106.102V106.567H115.685V98.9936Z" fill="#212121"/>
<path d="M125.269 98.9936H115.685V106.567H125.269V98.9936Z" fill="#212121"/>
<path d="M144.435 98.9936H134.852V106.567H144.435V98.9936Z" fill="#212121"/>
<path d="M154.019 98.9936H144.435V106.567H154.019V98.9936Z" fill="#212121"/>
<path d="M192.352 98.9936H182.769V106.567H192.352V98.9936Z" fill="#212121"/>
<path d="M201.936 98.9936H192.352V106.567H201.936V98.9936Z" fill="#212121"/>
<path d="M230.686 98.9936H221.103V106.567H230.686V98.9936Z" fill="#212121"/>
<path d="M240.269 98.9936H230.686V106.567H240.269V98.9936Z" fill="#212121"/>
<path d="M249.853 98.9936H240.269V106.567H249.853V98.9936Z" fill="#212121"/>
<path d="M259.436 98.9936H249.853V106.567H259.436V98.9936Z" fill="#212121"/>
<path d="M297.77 98.9936H288.186V106.567H297.77V98.9936Z" fill="#212121"/>
<path d="M29.4347 106.567H19.8513V114.14H29.4347V106.567Z" fill="#212121"/>
<path d="M77.3517 106.567H67.7683V114.14H77.3517V106.567Z" fill="#212121"/>
<path d="M86.935 106.567H77.3517V114.14H86.935V106.567Z" fill="#212121"/>
<path d="M96.5184 106.567H86.935V114.14H96.5184V106.567Z" fill="#212121"/>
<path d="M125.269 106.567H115.685V114.14H125.269V106.567Z" fill="#212121"/>
<path d="M154.019 106.567H144.435V114.14H154.019V106.567Z" fill="#212121"/>
<path d="M163.602 106.567H154.019V114.14H163.602V106.567Z" fill="#212121"/>
<path d="M182.769 106.567H173.186V114.14H182.769V106.567Z" fill="#212121"/>
<path d="M192.352 106.567H182.769V114.14H192.352V106.567Z" fill="#212121"/>
<path d="M201.936 106.567H192.352V114.14H201.936V106.567Z" fill="#212121"/>
<path d="M211.519 106.567H201.936V114.14H211.519V106.567Z" fill="#212121"/>
<path d="M230.686 106.567H221.103V114.14H230.686V106.567Z" fill="#212121"/>
<path d="M240.269 106.567H230.686V114.14H240.269V106.567Z" fill="#212121"/>
<path d="M259.436 106.567H249.853V114.14H259.436V106.567Z" fill="#212121"/>
<path d="M278.603 106.567H269.02V114.14H278.603V106.567Z" fill="#212121"/>
<path d="M96.5184 114.14H86.935V121.713H96.5184V114.14Z" fill="#212121"/>
<path d="M106.102 114.14H96.5184V121.713H106.102V114.14Z" fill="#212121"/>
<path d="M115.685 114.14H106.102V121.713H115.685V114.14Z" fill="#212121"/>
<path d="M125.269 114.14H115.685V121.713H125.269V114.14Z" fill="#212121"/>
<path d="M134.852 114.14H125.269V121.713H134.852V114.14Z" fill="#212121"/>
<path d="M144.435 114.14H134.852V121.713H144.435V114.14Z" fill="#212121"/>
<path d="M154.019 114.14H144.435V121.713H154.019V114.14Z" fill="#212121"/>
<path d="M163.602 114.14H154.019V121.713H163.602V114.14Z" fill="#212121"/>
<path d="M192.352 114.14H182.769V121.713H192.352V114.14Z" fill="#212121"/>
<path d="M221.103 114.14H211.519V121.713H221.103V114.14Z" fill="#212121"/>
<path d="M259.436 114.14H249.853V121.713H259.436V114.14Z" fill="#212121"/>
<path d="M297.77 114.14H288.186V121.713H297.77V114.14Z" fill="#212121"/>
<path d="M67.7683 121.713H58.1849V129.287H67.7683V121.713Z" fill="#212121"/>
<path d="M86.935 121.713H77.3517V129.287H86.935V121.713Z" fill="#212121"/>
<path d="M154.019 121.713H144.435V129.287H154.019V121.713Z" fill="#212121"/>
<path d="M182.769 121.713H173.186V129.287H182.769V121.713Z" fill="#212121"/>
<path d="M192.352 121.713H182.769V129.287H192.352V121.713Z" fill="#212121"/>
<path d="M211.519 121.713H201.936V129.287H211.519V121.713Z" fill="#212121"/>
<path d="M221.103 121.713H211.519V129.287H221.103V121.713Z" fill="#212121"/>
<path d="M230.686 121.713H221.103V129.287H230.686V121.713Z" fill="#212121"/>
<path d="M240.269 121.713H230.686V129.287H240.269V121.713Z" fill="#212121"/>
<path d="M249.853 121.713H240.269V129.287H249.853V121.713Z" fill="#212121"/>
<path d="M259.436 121.713H249.853V129.287H259.436V121.713Z" fill="#212121"/>
<path d="M288.186 121.713H278.603V129.287H288.186V121.713Z" fill="#212121"/>
<path d="M29.4347 129.287H19.8513V136.86H29.4347V129.287Z" fill="#212121"/>
<path d="M48.6015 129.287H39.0181V136.86H48.6015V129.287Z" fill="#212121"/>
<path d="M67.7683 129.287H58.1849V136.86H67.7683V129.287Z" fill="#212121"/>
<path d="M77.3517 129.287H67.7683V136.86H77.3517V129.287Z" fill="#212121"/>
<path d="M96.5184 129.287H86.935V136.86H96.5184V129.287Z" fill="#212121"/>
<path d="M125.269 129.287H115.685V136.86H125.269V129.287Z" fill="#212121"/>
<path d="M144.435 129.287H134.852V136.86H144.435V129.287Z" fill="#212121"/>
<path d="M173.186 129.287H163.602V136.86H173.186V129.287Z" fill="#212121"/>
<path d="M201.936 129.287H192.352V136.86H201.936V129.287Z" fill="#212121"/>
<path d="M221.103 129.287H211.519V136.86H221.103V129.287Z" fill="#212121"/>
<path d="M249.853 129.287H240.269V136.86H249.853V129.287Z" fill="#212121"/>
<path d="M278.603 129.287H269.02V136.86H278.603V129.287Z" fill="#212121"/>
<path d="M288.186 129.287H278.603V136.86H288.186V129.287Z" fill="#212121"/>
<path d="M297.77 129.287H288.186V136.86H297.77V129.287Z" fill="#212121"/>
<path d="M29.4347 136.86H19.8513V144.433H29.4347V136.86Z" fill="#212121"/>
<path d="M39.0181 136.86H29.4347V144.433H39.0181V136.86Z" fill="#212121"/>
<path d="M48.6015 136.86H39.0181V144.433H48.6015V136.86Z" fill="#212121"/>
<path d="M58.1849 136.86H48.6015V144.433H58.1849V136.86Z" fill="#212121"/>
<path d="M67.7683 136.86H58.1849V144.433H67.7683V136.86Z" fill="#212121"/>
<path d="M77.3517 136.86H67.7683V144.433H77.3517V136.86Z" fill="#212121"/>
<path d="M86.935 136.86H77.3517V144.433H86.935V136.86Z" fill="#212121"/>
<path d="M96.5184 136.86H86.935V144.433H96.5184V136.86Z" fill="#212121"/>
<path d="M115.685 136.86H106.102V144.433H115.685V136.86Z" fill="#212121"/>
<path d="M125.269 136.86H115.685V144.433H125.269V136.86Z" fill="#212121"/>
<path d="M134.852 136.86H125.269V144.433H134.852V136.86Z" fill="#212121"/>
<path d="M144.435 136.86H134.852V144.433H144.435V136.86Z" fill="#212121"/>
<path d="M154.019 136.86H144.435V144.433H154.019V136.86Z" fill="#212121"/>
<path d="M163.602 136.86H154.019V144.433H163.602V136.86Z" fill="#212121"/>
<path d="M182.769 136.86H173.186V144.433H182.769V136.86Z" fill="#212121"/>
<path d="M192.352 136.86H182.769V144.433H192.352V136.86Z" fill="#212121"/>
<path d="M221.103 136.86H211.519V144.433H221.103V136.86Z" fill="#212121"/>
<path d="M259.436 136.86H249.853V144.433H259.436V136.86Z" fill="#212121"/>
<path d="M278.603 136.86H269.02V144.433H278.603V136.86Z" fill="#212121"/>
<path d="M288.186 136.86H278.603V144.433H288.186V136.86Z" fill="#212121"/>
<path d="M297.77 136.86H288.186V144.433H297.77V136.86Z" fill="#212121"/>
<path d="M29.4347 144.433H19.8513V152.007H29.4347V144.433Z" fill="#212121"/>
<path d="M77.3517 144.433H67.7683V152.007H77.3517V144.433Z" fill="#212121"/>
<path d="M106.102 144.433H96.5184V152.007H106.102V144.433Z" fill="#212121"/>
<path d="M125.269 144.433H115.685V152.007H125.269V144.433Z" fill="#212121"/>
<path d="M134.852 144.433H125.269V152.007H134.852V144.433Z" fill="#212121"/>
<path d="M154.019 144.433H144.435V152.007H154.019V144.433Z" fill="#212121"/>
<path d="M163.602 144.433H154.019V152.007H163.602V144.433Z" fill="#212121"/>
<path d="M201.936 144.433H192.352V152.007H201.936V144.433Z" fill="#212121"/>
<path d="M221.103 144.433H211.519V152.007H221.103V144.433Z" fill="#212121"/>
<path d="M249.853 144.433H240.269V152.007H249.853V144.433Z" fill="#212121"/>
<path d="M259.436 144.433H249.853V152.007H259.436V144.433Z" fill="#212121"/>
<path d="M278.603 144.433H269.02V152.007H278.603V144.433Z" fill="#212121"/>
<path d="M29.4347 152.007H19.8513V159.58H29.4347V152.007Z" fill="#212121"/>
<path d="M39.0181 152.007H29.4347V159.58H39.0181V152.007Z" fill="#212121"/>
<path d="M48.6015 152.007H39.0181V159.58H48.6015V152.007Z" fill="#212121"/>
<path d="M67.7683 152.007H58.1849V159.58H67.7683V152.007Z" fill="#212121"/>
<path d="M86.935 152.007H77.3517V159.58H86.935V152.007Z" fill="#212121"/>
<path d="M154.019 152.007H144.435V159.58H154.019V152.007Z" fill="#212121"/>
<path d="M173.186 152.007H163.602V159.58H173.186V152.007Z" fill="#212121"/>
<path d="M192.352 152.007H182.769V159.58H192.352V152.007Z" fill="#212121"/>
<path d="M201.936 152.007H192.352V159.58H201.936V152.007Z" fill="#212121"/>
<path d="M240.269 152.007H230.686V159.58H240.269V152.007Z" fill="#212121"/>
<path d="M249.853 152.007H240.269V159.58H249.853V152.007Z" fill="#212121"/>
<path d="M278.603 152.007H269.02V159.58H278.603V152.007Z" fill="#212121"/>
<path d="M29.4347 159.58H19.8513V167.153H29.4347V159.58Z" fill="#212121"/>
<path d="M39.0181 159.58H29.4347V167.153H39.0181V159.58Z" fill="#212121"/>
<path d="M58.1849 159.58H48.6015V167.153H58.1849V159.58Z" fill="#212121"/>
<path d="M67.7683 159.58H58.1849V167.153H67.7683V159.58Z" fill="#212121"/>
<path d="M96.5184 159.58H86.935V167.153H96.5184V159.58Z" fill="#212121"/>
<path d="M115.685 159.58H106.102V167.153H115.685V159.58Z" fill="#212121"/>
<path d="M134.852 159.58H125.269V167.153H134.852V159.58Z" fill="#212121"/>
<path d="M163.602 159.58H154.019V167.153H163.602V159.58Z" fill="#212121"/>
<path d="M173.186 159.58H163.602V167.153H173.186V159.58Z" fill="#212121"/>
<path d="M192.352 159.58H182.769V167.153H192.352V159.58Z" fill="#212121"/>
<path d="M201.936 159.58H192.352V167.153H201.936V159.58Z" fill="#212121"/>
<path d="M240.269 159.58H230.686V167.153H240.269V159.58Z" fill="#212121"/>
<path d="M259.436 159.58H249.853V167.153H259.436V159.58Z" fill="#212121"/>
<path d="M278.603 159.58H269.02V167.153H278.603V159.58Z" fill="#212121"/>
<path d="M297.77 159.58H288.186V167.153H297.77V159.58Z" fill="#212121"/>
<path d="M48.6015 167.153H39.0181V174.726H48.6015V167.153Z" fill="#212121"/>
<path d="M58.1849 167.153H48.6015V174.726H58.1849V167.153Z" fill="#212121"/>
<path d="M67.7683 167.153H58.1849V174.726H67.7683V167.153Z" fill="#212121"/>
<path d="M77.3517 167.153H67.7683V174.726H77.3517V167.153Z" fill="#212121"/>
<path d="M86.935 167.153H77.3517V174.726H86.935V167.153Z" fill="#212121"/>
<path d="M134.852 167.153H125.269V174.726H134.852V167.153Z" fill="#212121"/>
<path d="M144.435 167.153H134.852V174.726H144.435V167.153Z" fill="#212121"/>
<path d="M163.602 167.153H154.019V174.726H163.602V167.153Z" fill="#212121"/>
<path d="M173.186 167.153H163.602V174.726H173.186V167.153Z" fill="#212121"/>
<path d="M182.769 167.153H173.186V174.726H182.769V167.153Z" fill="#212121"/>
<path d="M192.352 167.153H182.769V174.726H192.352V167.153Z" fill="#212121"/>
<path d="M201.936 167.153H192.352V174.726H201.936V167.153Z" fill="#212121"/>
<path d="M221.103 167.153H211.519V174.726H221.103V167.153Z" fill="#212121"/>
<path d="M230.686 167.153H221.103V174.726H230.686V167.153Z" fill="#212121"/>
<path d="M240.269 167.153H230.686V174.726H240.269V167.153Z" fill="#212121"/>
<path d="M249.853 167.153H240.269V174.726H249.853V167.153Z" fill="#212121"/>
<path d="M259.436 167.153H249.853V174.726H259.436V167.153Z" fill="#212121"/>
<path d="M269.02 167.153H259.436V174.726H269.02V167.153Z" fill="#212121"/>
<path d="M297.77 167.153H288.186V174.726H297.77V167.153Z" fill="#212121"/>
<path d="M106.102 174.726H96.5184V182.3H106.102V174.726Z" fill="#212121"/>
<path d="M163.602 174.726H154.019V182.3H163.602V174.726Z" fill="#212121"/>
<path d="M173.186 174.726H163.602V182.3H173.186V174.726Z" fill="#212121"/>
<path d="M211.519 174.726H201.936V182.3H211.519V174.726Z" fill="#212121"/>
<path d="M221.103 174.726H211.519V182.3H221.103V174.726Z" fill="#212121"/>
<path d="M259.436 174.726H249.853V182.3H259.436V174.726Z" fill="#212121"/>
<path d="M269.02 174.726H259.436V182.3H269.02V174.726Z" fill="#212121"/>
<path d="M278.603 174.726H269.02V182.3H278.603V174.726Z" fill="#212121"/>
<path d="M288.186 174.726H278.603V182.3H288.186V174.726Z" fill="#212121"/>
<path d="M29.4347 182.3H19.8513V189.873H29.4347V182.3Z" fill="#212121"/>
<path d="M39.0181 182.3H29.4347V189.873H39.0181V182.3Z" fill="#212121"/>
<path d="M48.6015 182.3H39.0181V189.873H48.6015V182.3Z" fill="#212121"/>
<path d="M58.1849 182.3H48.6015V189.873H58.1849V182.3Z" fill="#212121"/>
<path d="M67.7683 182.3H58.1849V189.873H67.7683V182.3Z" fill="#212121"/>
<path d="M77.3517 182.3H67.7683V189.873H77.3517V182.3Z" fill="#212121"/>
<path d="M86.935 182.3H77.3517V189.873H86.935V182.3Z" fill="#212121"/>
<path d="M144.435 182.3H134.852V189.873H144.435V182.3Z" fill="#212121"/>
<path d="M154.019 182.3H144.435V189.873H154.019V182.3Z" fill="#212121"/>
<path d="M173.186 182.3H163.602V189.873H173.186V182.3Z" fill="#212121"/>
<path d="M201.936 182.3H192.352V189.873H201.936V182.3Z" fill="#212121"/>
<path d="M211.519 182.3H201.936V189.873H211.519V182.3Z" fill="#212121"/>
<path d="M221.103 182.3H211.519V189.873H221.103V182.3Z" fill="#212121"/>
<path d="M240.269 182.3H230.686V189.873H240.269V182.3Z" fill="#212121"/>
<path d="M259.436 182.3H249.853V189.873H259.436V182.3Z" fill="#212121"/>
<path d="M29.4347 189.873H19.8513V197.446H29.4347V189.873Z" fill="#212121"/>
<path d="M86.935 189.873H77.3517V197.446H86.935V189.873Z" fill="#212121"/>
<path d="M115.685 189.873H106.102V197.446H115.685V189.873Z" fill="#212121"/>
<path d="M125.269 189.873H115.685V197.446H125.269V189.873Z" fill="#212121"/>
<path d="M144.435 189.873H134.852V197.446H144.435V189.873Z" fill="#212121"/>
<path d="M163.602 189.873H154.019V197.446H163.602V189.873Z" fill="#212121"/>
<path d="M173.186 189.873H163.602V197.446H173.186V189.873Z" fill="#212121"/>
<path d="M211.519 189.873H201.936V197.446H211.519V189.873Z" fill="#212121"/>
<path d="M221.103 189.873H211.519V197.446H221.103V189.873Z" fill="#212121"/>
<path d="M259.436 189.873H249.853V197.446H259.436V189.873Z" fill="#212121"/>
<path d="M269.02 189.873H259.436V197.446H269.02V189.873Z" fill="#212121"/>
<path d="M278.603 189.873H269.02V197.446H278.603V189.873Z" fill="#212121"/>
<path d="M288.186 189.873H278.603V197.446H288.186V189.873Z" fill="#212121"/>
<path d="M29.4347 197.446H19.8513V205.019H29.4347V197.446Z" fill="#212121"/>
<path d="M48.6015 197.446H39.0181V205.019H48.6015V197.446Z" fill="#212121"/>
<path d="M58.1849 197.446H48.6015V205.019H58.1849V197.446Z" fill="#212121"/>
<path d="M67.7683 197.446H58.1849V205.019H67.7683V197.446Z" fill="#212121"/>
<path d="M86.935 197.446H77.3517V205.019H86.935V197.446Z" fill="#212121"/>
<path d="M106.102 197.446H96.5184V205.019H106.102V197.446Z" fill="#212121"/>
<path d="M115.685 197.446H106.102V205.019H115.685V197.446Z" fill="#212121"/>
<path d="M154.019 197.446H144.435V205.019H154.019V197.446Z" fill="#212121"/>
<path d="M173.186 197.446H163.602V205.019H173.186V197.446Z" fill="#212121"/>
<path d="M192.352 197.446H182.769V205.019H192.352V197.446Z" fill="#212121"/>
<path d="M211.519 197.446H201.936V205.019H211.519V197.446Z" fill="#212121"/>
<path d="M221.103 197.446H211.519V205.019H221.103V197.446Z" fill="#212121"/>
<path d="M230.686 197.446H221.103V205.019H230.686V197.446Z" fill="#212121"/>
<path d="M240.269 197.446H230.686V205.019H240.269V197.446Z" fill="#212121"/>
<path d="M249.853 197.446H240.269V205.019H249.853V197.446Z" fill="#212121"/>
<path d="M259.436 197.446H249.853V205.019H259.436V197.446Z" fill="#212121"/>
<path d="M278.603 197.446H269.02V205.019H278.603V197.446Z" fill="#212121"/>
<path d="M297.77 197.446H288.186V205.019H297.77V197.446Z" fill="#212121"/>
<path d="M29.4347 205.019H19.8513V212.593H29.4347V205.019Z" fill="#212121"/>
<path d="M48.6015 205.019H39.0181V212.593H48.6015V205.019Z" fill="#212121"/>
<path d="M58.1849 205.019H48.6015V212.593H58.1849V205.019Z" fill="#212121"/>
<path d="M67.7683 205.019H58.1849V212.593H67.7683V205.019Z" fill="#212121"/>
<path d="M86.935 205.019H77.3517V212.593H86.935V205.019Z" fill="#212121"/>
<path d="M134.852 205.019H125.269V212.593H134.852V205.019Z" fill="#212121"/>
<path d="M154.019 205.019H144.435V212.593H154.019V205.019Z" fill="#212121"/>
<path d="M182.769 205.019H173.186V212.593H182.769V205.019Z" fill="#212121"/>
<path d="M201.936 205.019H192.352V212.593H201.936V205.019Z" fill="#212121"/>
<path d="M211.519 205.019H201.936V212.593H211.519V205.019Z" fill="#212121"/>
<path d="M221.103 205.019H211.519V212.593H221.103V205.019Z" fill="#212121"/>
<path d="M230.686 205.019H221.103V212.593H230.686V205.019Z" fill="#212121"/>
<path d="M240.269 205.019H230.686V212.593H240.269V205.019Z" fill="#212121"/>
<path d="M259.436 205.019H249.853V212.593H259.436V205.019Z" fill="#212121"/>
<path d="M288.186 205.019H278.603V212.593H288.186V205.019Z" fill="#212121"/>
<path d="M297.77 205.019H288.186V212.593H297.77V205.019Z" fill="#212121"/>
<path d="M29.4347 212.593H19.8513V220.166H29.4347V212.593Z" fill="#212121"/>
<path d="M48.6015 212.593H39.0181V220.166H48.6015V212.593Z" fill="#212121"/>
<path d="M58.1849 212.593H48.6015V220.166H58.1849V212.593Z" fill="#212121"/>
<path d="M67.7683 212.593H58.1849V220.166H67.7683V212.593Z" fill="#212121"/>
<path d="M86.935 212.593H77.3517V220.166H86.935V212.593Z" fill="#212121"/>
<path d="M106.102 212.593H96.5184V220.166H106.102V212.593Z" fill="#212121"/>
<path d="M115.685 212.593H106.102V220.166H115.685V212.593Z" fill="#212121"/>
<path d="M125.269 212.593H115.685V220.166H125.269V212.593Z" fill="#212121"/>
<path d="M154.019 212.593H144.435V220.166H154.019V212.593Z" fill="#212121"/>
<path d="M163.602 212.593H154.019V220.166H163.602V212.593Z" fill="#212121"/>
<path d="M173.186 212.593H163.602V220.166H173.186V212.593Z" fill="#212121"/>
<path d="M192.352 212.593H182.769V220.166H192.352V212.593Z" fill="#212121"/>
<path d="M211.519 212.593H201.936V220.166H211.519V212.593Z" fill="#212121"/>
<path d="M221.103 212.593H211.519V220.166H221.103V212.593Z" fill="#212121"/>
<path d="M278.603 212.593H269.02V220.166H278.603V212.593Z" fill="#212121"/>
<path d="M288.186 212.593H278.603V220.166H288.186V212.593Z" fill="#212121"/>
<path d="M29.4347 220.166H19.8513V227.739H29.4347V220.166Z" fill="#212121"/>
<path d="M86.935 220.166H77.3517V227.739H86.935V220.166Z" fill="#212121"/>
<path d="M106.102 220.166H96.5184V227.739H106.102V220.166Z" fill="#212121"/>
<path d="M115.685 220.166H106.102V227.739H115.685V220.166Z" fill="#212121"/>
<path d="M154.019 220.166H144.435V227.739H154.019V220.166Z" fill="#212121"/>
<path d="M192.352 220.166H182.769V227.739H192.352V220.166Z" fill="#212121"/>
<path d="M221.103 220.166H211.519V227.739H221.103V220.166Z" fill="#212121"/>
<path d="M269.02 220.166H259.436V227.739H269.02V220.166Z" fill="#212121"/>
<path d="M278.603 220.166H269.02V227.739H278.603V220.166Z" fill="#212121"/>
<path d="M29.4347 227.739H19.8513V235.313H29.4347V227.739Z" fill="#212121"/>
<path d="M39.0181 227.739H29.4347V235.313H39.0181V227.739Z" fill="#212121"/>
<path d="M48.6015 227.739H39.0181V235.313H48.6015V227.739Z" fill="#212121"/>
<path d="M58.1849 227.739H48.6015V235.313H58.1849V227.739Z" fill="#212121"/>
<path d="M67.7683 227.739H58.1849V235.313H67.7683V227.739Z" fill="#212121"/>
<path d="M77.3517 227.739H67.7683V235.313H77.3517V227.739Z" fill="#212121"/>
<path d="M86.935 227.739H77.3517V235.313H86.935V227.739Z" fill="#212121"/>
<path d="M106.102 227.739H96.5184V235.313H106.102V227.739Z" fill="#212121"/>
<path d="M134.852 227.739H125.269V235.313H134.852V227.739Z" fill="#212121"/>
<path d="M144.435 227.739H134.852V235.313H144.435V227.739Z" fill="#212121"/>
<path d="M154.019 227.739H144.435V235.313H154.019V227.739Z" fill="#212121"/>
<path d="M163.602 227.739H154.019V235.313H163.602V227.739Z" fill="#212121"/>
<path d="M173.186 227.739H163.602V235.313H173.186V227.739Z" fill="#212121"/>
<path d="M201.936 227.739H192.352V235.313H201.936V227.739Z" fill="#212121"/>
<path d="M278.603 227.739H269.02V235.313H278.603V227.739Z" fill="#212121"/>
<path d="M288.186 227.739H278.603V235.313H288.186V227.739Z" fill="#212121"/>
</g>
<path d="M1.75835 249.242L1.05085 249.949L1.75835 249.242ZM315.863 249.242L316.57 249.949L315.863 249.242ZM315.863 1.75835L316.57 1.05085L315.863 1.75835ZM1.75835 1.75835L1.05085 1.05085L1.75835 1.75835ZM12.0068 0V1.00056H305.614V0V-1.00056H12.0068V0ZM317.621 12.0068H316.62V238.993H317.621H318.622V12.0068H317.621ZM305.614 251V249.999H12.0068V251V252.001H305.614V251ZM0 238.993H1.00056V12.0068H0H-1.00056V238.993H0ZM12.0068 251V249.999C9.14848 249.999 7.1054 249.997 5.55276 249.789C4.0289 249.584 3.12814 249.196 2.46586 248.534L1.75835 249.242L1.05085 249.949C2.14691 251.045 3.54035 251.537 5.28611 251.772C7.00309 252.003 9.20505 252.001 12.0068 252.001V251ZM0 238.993H-1.00056C-1.00056 241.795 -1.00269 243.997 -0.771848 245.714C-0.537137 247.46 -0.0452216 248.853 1.05085 249.949L1.75835 249.242L2.46586 248.534C1.80357 247.872 1.41631 246.971 1.21144 245.447C1.00269 243.895 1.00056 241.851 1.00056 238.993H0ZM317.621 238.993H316.62C316.62 241.851 316.618 243.895 316.41 245.447C316.205 246.971 315.817 247.872 315.155 248.534L315.863 249.242L316.57 249.949C317.666 248.853 318.158 247.46 318.393 245.714C318.624 243.997 318.622 241.795 318.622 238.993H317.621ZM305.614 251V252.001C308.416 252.001 310.618 252.003 312.335 251.772C314.081 251.537 315.474 251.045 316.57 249.949L315.863 249.242L315.155 248.534C314.493 249.196 313.592 249.584 312.068 249.789C310.516 249.997 308.473 249.999 305.614 249.999V251ZM305.614 0V1.00056C308.473 1.00056 310.516 1.00269 312.068 1.21144C313.592 1.41631 314.493 1.80357 315.155 2.46586L315.863 1.75835L316.57 1.05085C315.474 -0.0452221 314.081 -0.537138 312.335 -0.771848C310.618 -1.00269 308.416 -1.00056 305.614 -1.00056V0ZM317.621 12.0068H318.622C318.622 9.20504 318.624 7.00308 318.393 5.2861C318.158 3.54035 317.666 2.14691 316.57 1.05085L315.863 1.75835L315.155 2.46586C315.817 3.12814 316.205 4.02889 316.41 5.55275C316.618 7.10539 316.62 9.14846 316.62 12.0068H317.621ZM12.0068 0V-1.00056C9.20504 -1.00056 7.00308 -1.00269 5.2861 -0.771848C3.54035 -0.537137 2.14691 -0.0452216 1.05085 1.05085L1.75835 1.75835L2.46586 2.46586C3.12814 1.80357 4.02889 1.41631 5.55275 1.21144C7.10539 1.00269 9.14846 1.00056 12.0068 1.00056V0ZM0 12.0068H1.00056C1.00056 9.14847 1.00269 7.10539 1.21144 5.55275C1.41631 4.02889 1.80357 3.12814 2.46586 2.46586L1.75835 1.75835L1.05085 1.05085C-0.0452217 2.14691 -0.537137 3.54035 -0.771848 5.2861C-1.00269 7.00308 -1.00056 9.20504 -1.00056 12.0068H0Z" fill="#EEEEEE" mask="url(#path-1-inside-1_282_5857)"/>
<defs>
<clipPath id="clip0_282_5857">
<path d="M0 12.0068C0 6.34673 0 3.5167 1.75835 1.75835C3.5167 0 6.34673 0 12.0068 0H305.614C311.274 0 314.104 0 315.863 1.75835C317.621 3.5167 317.621 6.34673 317.621 12.0068V238.993C317.621 244.653 317.621 247.483 315.863 249.242C314.104 251 311.274 251 305.614 251H12.0068C6.34673 251 3.5167 251 1.75835 249.242C0 247.483 0 244.653 0 238.993V12.0068Z" fill="white"/>
</clipPath>
</defs>
</svg>
