<svg width="17" height="12" viewBox="0 0 17 12" fill="none" xmlns="http://www.w3.org/2000/svg">
<path d="M6.11523 9.08472C7.53497 7.85913 9.61438 7.85926 11.0342 9.08472C11.1056 9.15066 11.1474 9.24424 11.1494 9.34253C11.1514 9.44076 11.1136 9.53541 11.0449 9.60425L8.82129 11.8943C8.75619 11.9615 8.66779 11.9997 8.5752 11.9998C8.48248 11.9998 8.3933 11.9616 8.32812 11.8943L6.10449 9.60425C6.03588 9.53538 5.99801 9.44072 6 9.34253C6.00204 9.24424 6.04375 9.1506 6.11523 9.08472ZM3.10938 6.26147C6.16845 3.35688 10.9058 3.35688 13.9648 6.26147C14.0339 6.32958 14.0732 6.42326 14.0742 6.52124C14.0751 6.61911 14.0373 6.71352 13.9697 6.78296L12.6846 8.10815C12.5521 8.24342 12.338 8.24674 12.2021 8.11499C11.1977 7.18656 9.89123 6.6716 8.53613 6.67163C7.18182 6.6722 5.87596 7.18708 4.87207 8.11499C4.7362 8.24673 4.52208 8.2435 4.38965 8.10815L3.10449 6.78296C3.03674 6.71361 2.99918 6.61917 3 6.52124C3.00091 6.42328 3.04039 6.32957 3.10938 6.26147ZM0.107422 3.44214C4.79927 -1.14747 12.2007 -1.14741 16.8926 3.44214C16.9605 3.51033 16.9994 3.60369 17 3.70093C17.0005 3.79802 16.9625 3.8918 16.8955 3.96069L15.6094 5.28589C15.4768 5.42187 15.2616 5.42358 15.127 5.28979C13.3393 3.55503 10.9666 2.58776 8.5 2.58765C6.03337 2.58776 3.66078 3.55502 1.87305 5.28979C1.7385 5.42369 1.52304 5.42204 1.39062 5.28589L0.103516 3.96069C0.036546 3.89177 -0.000499208 3.79799 0 3.70093C0.00062672 3.60369 0.0394563 3.51028 0.107422 3.44214Z" fill="black"/>
</svg>
