<svg width="17" height="17" viewBox="0 0 17 17" fill="none" xmlns="http://www.w3.org/2000/svg">
<path fill-rule="evenodd" clip-rule="evenodd" d="M4.71139 1.28004C2.49863 1.28004 1.28004 2.46023 1.28004 4.60302V12.3251C1.28004 14.5148 2.49863 15.7197 4.71139 15.7197H11.9291C14.1419 15.7197 15.3605 14.537 15.3605 12.3899V4.60302C15.3639 3.54912 15.0805 2.72989 14.5182 2.16668C13.9396 1.58639 13.0479 1.28004 11.9368 1.28004H4.71139ZM11.9291 16.9998H4.71139C1.80571 16.9998 0 15.2086 0 12.3251V4.60302C0 1.76304 1.80571 0 4.71139 0H11.9368C13.3952 0 14.601 0.436919 15.4245 1.26212C16.2241 2.06513 16.6448 3.21972 16.6405 4.60472V12.3899C16.6405 15.2333 14.8348 16.9998 11.9291 16.9998Z" fill="#212121"/>
</svg>
