<svg width="353" height="280" viewBox="0 0 353 280" fill="none" xmlns="http://www.w3.org/2000/svg">
<path d="M349.722 58.0946V19.014C349.722 11.466 349.722 7.69195 347.378 5.34708C345.033 3.00221 341.259 3.00221 333.711 3.00221H280.007M349.722 221.905V260.986C349.722 268.534 349.722 272.308 347.378 274.653C345.033 276.998 341.259 276.998 333.711 276.998H280.007M72.7174 276.998H19.014C11.466 276.998 7.69195 276.998 5.34708 274.653C3.00221 272.308 3.00221 268.534 3.00221 260.986V221.905M3.00221 58.0946V19.014C3.00221 11.466 3.00221 7.69195 5.34708 5.34708C7.69195 3.00221 11.466 3.00221 19.014 3.00221H72.7174" stroke="#F43F5E" stroke-width="6" stroke-linejoin="round"/>
</svg>
