<svg width="36" height="27" viewBox="0 0 36 27" fill="none" xmlns="http://www.w3.org/2000/svg">
<path d="M35.3872 3.54715L13.24 25.6943C13.0471 25.8879 12.8179 26.0415 12.5655 26.1463C12.3131 26.2511 12.0426 26.305 11.7693 26.305C11.496 26.305 11.2254 26.2511 10.9731 26.1463C10.7207 26.0415 10.4915 25.8879 10.2986 25.6943L0.609189 16.005C0.416052 15.8118 0.262848 15.5825 0.158323 15.3302C0.0537981 15.0778 2.87796e-09 14.8074 0 14.5342C-2.87796e-09 14.2611 0.0537981 13.9906 0.158323 13.7383C0.262848 13.4859 0.416052 13.2567 0.609189 13.0635C0.802325 12.8704 1.03161 12.7172 1.28396 12.6127C1.5363 12.5081 1.80676 12.4543 2.0799 12.4543C2.35304 12.4543 2.6235 12.5081 2.87584 12.6127C3.12819 12.7172 3.35748 12.8704 3.55061 13.0635L11.771 21.2839L32.4492 0.609188C32.8393 0.219131 33.3683 0 33.9199 0C34.4716 0 35.0006 0.219131 35.3907 0.609188C35.7807 0.999246 35.9999 1.52828 35.9999 2.0799C35.9999 2.63153 35.7807 3.16056 35.3907 3.55061L35.3872 3.54715Z" fill="white"/>
</svg>
