<svg width="19" height="18" viewBox="0 0 19 18" fill="none" xmlns="http://www.w3.org/2000/svg">
<path fill-rule="evenodd" clip-rule="evenodd" d="M9.49844 1.54078C5.90841 1.54078 3.40617 4.35323 3.40617 6.87704C3.40617 9.01256 2.81349 9.99969 2.28962 10.8707C1.8695 11.5703 1.53772 12.1229 1.53772 13.3237C1.70926 15.261 2.98811 16.2789 9.49844 16.2789C15.9728 16.2789 17.2917 15.2158 17.4622 13.2569C17.4592 12.1229 17.1274 11.5703 16.7073 10.8707C16.1834 9.99969 15.5907 9.01256 15.5907 6.87704C15.5907 4.35323 13.0885 1.54078 9.49844 1.54078ZM9.49844 17.8197C4.6953 17.8197 0.354394 17.4807 1.37178e-05 13.3894C-0.00306785 11.6966 0.513609 10.8358 0.969681 10.0778C1.43089 9.30942 1.86539 8.58525 1.86539 6.87704C1.86539 3.55613 4.93258 0 9.49844 0C14.0643 0 17.1315 3.55613 17.1315 6.87704C17.1315 8.58525 17.566 9.30942 18.0272 10.0778C18.4833 10.8358 18.9999 11.6966 18.9999 13.3237C18.6415 17.4807 14.3016 17.8197 9.49844 17.8197Z" fill="#212121"/>
</svg>
