<svg width="17" height="12" viewBox="0 0 17 12" fill="none" xmlns="http://www.w3.org/2000/svg">
<path d="M6.11523 9.08496C7.53497 7.85937 9.61438 7.8595 11.0342 9.08496C11.1056 9.1509 11.1474 9.24448 11.1494 9.34277C11.1514 9.44101 11.1136 9.53566 11.0449 9.60449L8.82129 11.8945C8.75619 11.9617 8.66779 11.9999 8.5752 12C8.48248 12 8.3933 11.9618 8.32812 11.8945L6.10449 9.60449C6.03588 9.53563 5.99801 9.44097 6 9.34277C6.00204 9.24448 6.04375 9.15085 6.11523 9.08496ZM3.10938 6.26172C6.16845 3.35713 10.9058 3.35713 13.9648 6.26172C14.0339 6.32982 14.0732 6.42351 14.0742 6.52148C14.0751 6.61935 14.0373 6.71377 13.9697 6.7832L12.6846 8.1084C12.5521 8.24367 12.338 8.24698 12.2021 8.11523C11.1977 7.1868 9.89123 6.67185 8.53613 6.67188C7.18182 6.67245 5.87596 7.18733 4.87207 8.11523C4.7362 8.24697 4.52208 8.24374 4.38965 8.1084L3.10449 6.7832C3.03674 6.71385 2.99918 6.61941 3 6.52148C3.00091 6.42352 3.04039 6.32981 3.10938 6.26172ZM0.107422 3.44238C4.79927 -1.14723 12.2007 -1.14716 16.8926 3.44238C16.9605 3.51057 16.9994 3.60393 17 3.70117C17.0005 3.79826 16.9625 3.89204 16.8955 3.96094L15.6094 5.28613C15.4768 5.42211 15.2616 5.42382 15.127 5.29004C13.3393 3.55527 10.9666 2.588 8.5 2.58789C6.03337 2.58801 3.66078 3.55527 1.87305 5.29004C1.7385 5.42393 1.52304 5.42228 1.39062 5.28613L0.103516 3.96094C0.036546 3.89201 -0.000499208 3.79823 0 3.70117C0.00062672 3.60393 0.0394563 3.51052 0.107422 3.44238Z" fill="black"/>
</svg>
