<svg width="18" height="18" viewBox="0 0 18 18" fill="none" xmlns="http://www.w3.org/2000/svg">
<path d="M1.19082 1.7606C2.87706 0.0742139 3.97561 -0.373065 5.14725 0.300654C5.48428 0.494462 5.80027 0.766501 6.22991 1.20287L7.54735 2.5685C8.27527 3.3628 8.44156 4.12555 8.20454 5.01781L8.17173 5.13572L8.13482 5.2526L7.9595 5.77034C7.58255 6.92933 7.7397 7.5829 9.08112 8.924C10.4763 10.3188 11.1277 10.4338 12.3763 9.99744L12.5987 9.91952L12.8674 9.83237L12.9853 9.79956C13.9335 9.54656 14.7347 9.74838 15.5843 10.5972L16.6464 11.6235L16.9591 11.9311C17.3054 12.2843 17.5343 12.5641 17.7034 12.8599C18.373 14.0312 17.9261 15.1289 16.1912 16.8574L16.0261 17.0245C15.7671 17.2741 15.5246 17.4534 15.169 17.6222C14.5724 17.9054 13.8668 18.0119 13.0478 17.898C11.0292 17.6171 8.46911 16.0241 5.22517 12.781C4.96108 12.517 4.7075 12.2578 4.46546 12.0038L3.9959 11.5025C-0.404083 6.72195 -0.792603 3.78502 1.01038 1.9431L1.12726 1.82725L1.19082 1.7606ZM4.49314 1.43868C4.08942 1.20652 3.65321 1.30429 2.8466 1.99846L2.59336 2.22504C2.54917 2.26583 2.50326 2.30824 2.457 2.35217L2.16686 2.63617L2.1402 2.66795L1.94336 2.86685C1.46723 3.35326 1.24149 3.94668 1.43586 4.96758C1.75487 6.64298 3.21522 8.91609 6.15302 11.8531C9.21395 14.9132 11.5464 16.3639 13.2293 16.598C14.2102 16.7344 14.711 16.4974 15.2213 15.9746L15.6099 15.5809C15.7924 15.39 15.9488 15.2172 16.0805 15.0591L16.2599 14.8325C16.7187 14.2213 16.7607 13.8543 16.5644 13.511C16.4897 13.3804 16.3811 13.2369 16.223 13.0619L16.0087 12.8353L15.8816 12.7082L14.5416 11.4154C14.0939 11.0025 13.7881 10.9439 13.3236 11.0678L13.1893 11.1057L12.6346 11.2944C11.0249 11.8143 9.86337 11.5624 8.15327 9.85288C6.38197 8.08203 6.17366 6.89887 6.76714 5.19621L6.8061 5.08651L6.91068 4.7697L6.96296 4.56773C7.05472 4.12777 6.94982 3.82066 6.477 3.34769C6.45752 3.32821 6.43507 3.30609 6.41138 3.28207L5.16776 1.99539C4.88289 1.71455 4.67561 1.54364 4.49314 1.43868Z" fill="#F43F5E"/>
</svg>
