<svg width="18" height="17" viewBox="0 0 18 17" fill="none" xmlns="http://www.w3.org/2000/svg">
<path fill-rule="evenodd" clip-rule="evenodd" d="M4.88844 15.0697H13.1098C13.1115 15.068 13.1182 15.0697 13.1232 15.0697C14.0784 15.0697 14.9257 14.7281 15.5754 14.0793C16.3297 13.3283 16.7441 12.2492 16.7441 11.0411V5.29114C16.7441 2.95282 15.2154 1.25581 13.1098 1.25581H4.89012C2.78455 1.25581 1.25581 2.95282 1.25581 5.29114V11.0411C1.25581 12.2492 1.67106 13.3283 2.42455 14.0793C3.07422 14.7281 3.92231 15.0697 4.87672 15.0697H4.88844ZM4.87421 16.3255C3.5824 16.3255 2.42873 15.8567 1.53795 14.9692C0.545858 13.9797 0 12.5849 0 11.0411V5.29114C0 2.27469 2.10222 0 4.89012 0H13.1098C15.8977 0 17.9999 2.27469 17.9999 5.29114V11.0411C17.9999 12.5849 17.4541 13.9797 16.462 14.9692C15.572 15.8558 14.4175 16.3255 13.1232 16.3255H13.1098H4.89012H4.87421Z" fill="#212121"/>
</svg>
