<svg width="20" height="24" viewBox="0 0 20 24" fill="none" xmlns="http://www.w3.org/2000/svg">
<path d="M14.2222 15.111C14.2222 15.3467 14.1286 15.5728 13.9619 15.7395C13.7952 15.9062 13.5691 15.9998 13.3333 15.9998H6.22222C5.98647 15.9998 5.76038 15.9062 5.59368 15.7395C5.42698 15.5728 5.33333 15.3467 5.33333 15.111C5.33333 14.8752 5.42698 14.6491 5.59368 14.4824C5.76038 14.3157 5.98647 14.2221 6.22222 14.2221H13.3333C13.5691 14.2221 13.7952 14.3157 13.9619 14.4824C14.1286 14.6491 14.2222 14.8752 14.2222 15.111ZM13.3333 10.6665H6.22222C5.98647 10.6665 5.76038 10.7602 5.59368 10.9269C5.42698 11.0936 5.33333 11.3196 5.33333 11.5554C5.33333 11.7911 5.42698 12.0172 5.59368 12.1839C5.76038 12.3506 5.98647 12.4443 6.22222 12.4443H13.3333C13.5691 12.4443 13.7952 12.3506 13.9619 12.1839C14.1286 12.0172 14.2222 11.7911 14.2222 11.5554C14.2222 11.3196 14.1286 11.0936 13.9619 10.9269C13.7952 10.7602 13.5691 10.6665 13.3333 10.6665ZM19.5556 3.55539V22.2221C19.5556 22.6936 19.3683 23.1457 19.0349 23.4791C18.7015 23.8125 18.2493 23.9998 17.7778 23.9998H1.77778C1.30628 23.9998 0.854097 23.8125 0.520699 23.4791C0.187301 23.1457 0 22.6936 0 22.2221V3.55539C0 3.0839 0.187301 2.63171 0.520699 2.29832C0.854097 1.96492 1.30628 1.77762 1.77778 1.77762H5.80667C6.30612 1.21842 6.91804 0.771014 7.60237 0.464681C8.2867 0.158349 9.02801 0 9.77778 0C10.5275 0 11.2689 0.158349 11.9532 0.464681C12.6375 0.771014 13.2494 1.21842 13.7489 1.77762H17.7778C18.2493 1.77762 18.7015 1.96492 19.0349 2.29832C19.3683 2.63171 19.5556 3.0839 19.5556 3.55539ZM6.22222 5.33317H13.3333C13.3333 4.39018 12.9587 3.48581 12.2919 2.81901C11.6251 2.15222 10.7208 1.77762 9.77778 1.77762C8.83479 1.77762 7.93042 2.15222 7.26362 2.81901C6.59682 3.48581 6.22222 4.39018 6.22222 5.33317ZM17.7778 3.55539H14.8056C15.0078 4.1263 15.1111 4.72752 15.1111 5.33317V6.22206C15.1111 6.45781 15.0175 6.6839 14.8508 6.8506C14.6841 7.0173 14.458 7.11095 14.2222 7.11095H5.33333C5.09759 7.11095 4.87149 7.0173 4.70479 6.8506C4.5381 6.6839 4.44444 6.45781 4.44444 6.22206V5.33317C4.44447 4.72752 4.5478 4.1263 4.75 3.55539H1.77778V22.2221H17.7778V3.55539Z" fill="#212121"/>
</svg>
