<svg width="16" height="20" viewBox="0 0 16 20" fill="none" xmlns="http://www.w3.org/2000/svg">
<path fill-rule="evenodd" clip-rule="evenodd" d="M7.94058 10.6884H7.97279C10.9199 10.6884 13.3165 8.29185 13.3165 5.34471C13.3165 2.39757 10.9199 0 7.97279 0C5.02465 0 2.62708 2.39757 2.62708 5.34169C2.61701 8.28078 4.99948 10.6794 7.94058 10.6884ZM4.06441 5.34471C4.06441 3.18971 5.8178 1.43733 7.97279 1.43733C10.1268 1.43733 11.8792 3.18971 11.8792 5.34471C11.8792 7.4987 10.1268 9.25208 7.97279 9.25208H7.9436C5.79767 9.24403 4.05737 7.49266 4.06441 5.34471Z" fill="#212121"/>
<path fill-rule="evenodd" clip-rule="evenodd" d="M0 16.2791C0 20.0002 6.00097 20.0002 7.97278 20.0002C11.394 20.0002 15.9435 19.6167 15.9435 16.2992C15.9435 12.578 9.94458 12.578 7.97278 12.578C4.55055 12.578 0 12.9615 0 16.2791ZM1.5098 16.2791C1.5098 14.8246 3.68392 14.0878 7.97278 14.0878C12.2606 14.0878 14.4337 14.8317 14.4337 16.2992C14.4337 17.7536 12.2606 18.4904 7.97278 18.4904C3.68392 18.4904 1.5098 17.7466 1.5098 16.2791Z" fill="#212121"/>
</svg>
