<svg width="26" height="21" viewBox="0 0 26 21" fill="none" xmlns="http://www.w3.org/2000/svg">
<path fill-rule="evenodd" clip-rule="evenodd" d="M1.80001 13.8649V16.1917C1.80001 17.8501 3.17163 19.2002 4.85764 19.2002H20.9426C22.6286 19.2002 24.0002 17.8501 24.0002 16.1917V13.8649C22.499 13.4701 21.3878 12.1117 21.3878 10.5013C21.3878 8.88967 22.4978 7.53246 24.0002 7.13766L23.999 4.80844C23.999 3.15003 22.6274 1.80001 20.9414 1.80001H4.85884C3.17283 1.80001 1.80121 3.15003 1.80121 4.80844L1.80001 7.23006C3.32043 7.60326 4.41244 8.90647 4.41244 10.5013C4.41244 12.1117 3.30123 13.4701 1.80001 13.8649ZM20.9426 21.0002H4.85764C2.17922 21.0002 0 18.8426 0 16.1917V13.0813C0 12.5845 0.403203 12.1813 0.900007 12.1813C1.84441 12.1813 2.61242 11.4277 2.61242 10.5013C2.61242 9.60128 1.87562 8.92207 0.900007 8.92207C0.661205 8.92207 0.432003 8.82727 0.264002 8.65807C0.0948008 8.49007 0 8.25967 0 8.02206L0.00120001 4.80844C0.00120001 2.15762 2.18042 0 4.85884 0H20.9414C23.6198 0 25.799 2.15762 25.799 4.80844L25.8002 7.92126C25.8002 8.15886 25.7054 8.38927 25.5362 8.55727C25.3682 8.72647 25.139 8.82127 24.9002 8.82127C23.9558 8.82127 23.1878 9.57488 23.1878 10.5013C23.1878 11.4277 23.9558 12.1813 24.9002 12.1813C25.397 12.1813 25.8002 12.5845 25.8002 13.0813V16.1917C25.8002 18.8426 23.621 21.0002 20.9426 21.0002Z" fill="#212121"/>
</svg>
