<svg width="17" height="12" viewBox="0 0 17 12" fill="none" xmlns="http://www.w3.org/2000/svg">
<path d="M6.11523 9.08475C7.53497 7.85916 9.61438 7.85929 11.0342 9.08475C11.1056 9.15069 11.1474 9.24427 11.1494 9.34256C11.1514 9.44079 11.1136 9.53544 11.0449 9.60428L8.82129 11.8943C8.75619 11.9615 8.66779 11.9997 8.5752 11.9998C8.48248 11.9998 8.3933 11.9616 8.32812 11.8943L6.10449 9.60428C6.03588 9.53541 5.99801 9.44075 6 9.34256C6.00204 9.24427 6.04375 9.15063 6.11523 9.08475ZM3.10938 6.26151C6.16845 3.35691 10.9058 3.35691 13.9648 6.26151C14.0339 6.32961 14.0732 6.42329 14.0742 6.52127C14.0751 6.61914 14.0373 6.71356 13.9697 6.78299L12.6846 8.10818C12.5521 8.24345 12.338 8.24677 12.2021 8.11502C11.1977 7.18659 9.89123 6.67163 8.53613 6.67166C7.18182 6.67223 5.87596 7.18711 4.87207 8.11502C4.7362 8.24676 4.52208 8.24353 4.38965 8.10818L3.10449 6.78299C3.03674 6.71364 2.99918 6.6192 3 6.52127C3.00091 6.42331 3.04039 6.3296 3.10938 6.26151ZM0.107422 3.44217C4.79927 -1.14744 12.2007 -1.14738 16.8926 3.44217C16.9605 3.51036 16.9994 3.60372 17 3.70096C17.0005 3.79805 16.9625 3.89183 16.8955 3.96072L15.6094 5.28592C15.4768 5.4219 15.2616 5.42361 15.127 5.28983C13.3393 3.55506 10.9666 2.58779 8.5 2.58768C6.03337 2.58779 3.66078 3.55505 1.87305 5.28983C1.7385 5.42372 1.52304 5.42207 1.39062 5.28592L0.103516 3.96072C0.036546 3.8918 -0.000499208 3.79802 0 3.70096C0.00062672 3.60372 0.0394563 3.51031 0.107422 3.44217Z" fill="black"/>
</svg>
