<svg width="36" height="27" viewBox="0 0 36 27" fill="none" xmlns="http://www.w3.org/2000/svg">
<path d="M35.3874 3.54718L13.2401 25.6945C13.0472 25.8881 12.818 26.0417 12.5656 26.1465C12.3132 26.2513 12.0426 26.3052 11.7694 26.3052C11.4961 26.3052 11.2255 26.2513 10.9731 26.1465C10.7208 26.0417 10.4916 25.8881 10.2987 25.6945L0.609193 16.0051C0.416055 15.8119 0.262849 15.5826 0.158324 15.3303C0.0537985 15.0779 2.87798e-09 14.8075 0 14.5343C-2.87798e-09 14.2612 0.0537985 13.9907 0.158324 13.7384C0.262849 13.486 0.416055 13.2568 0.609193 13.0636C0.802331 12.8705 1.03162 12.7173 1.28397 12.6127C1.53631 12.5082 1.80678 12.4544 2.07992 12.4544C2.35305 12.4544 2.62352 12.5082 2.87586 12.6127C3.12821 12.7173 3.3575 12.8705 3.55064 13.0636L11.7711 21.2841L32.4495 0.609193C32.8395 0.219133 33.3685 0 33.9202 0C34.4718 0 35.0008 0.219133 35.3909 0.609193C35.781 0.999252 36.0001 1.52829 36.0001 2.07992C36.0001 2.63154 35.781 3.16058 35.3909 3.55064L35.3874 3.54718Z" fill="white"/>
</svg>
