<svg width="23" height="25" viewBox="0 0 23 25" fill="none" xmlns="http://www.w3.org/2000/svg">
<path d="M8.75 20C9.08152 20 9.39946 19.8683 9.63388 19.6339C9.8683 19.3995 10 19.0815 10 18.75V11.25C10 10.9185 9.8683 10.6005 9.63388 10.3661C9.39946 10.1317 9.08152 10 8.75 10C8.41848 10 8.10054 10.1317 7.86612 10.3661C7.6317 10.6005 7.5 10.9185 7.5 11.25V18.75C7.5 19.0815 7.6317 19.3995 7.86612 19.6339C8.10054 19.8683 8.41848 20 8.75 20ZM21.25 5H16.25V3.75C16.25 2.75544 15.8549 1.80161 15.1517 1.09835C14.4484 0.395088 13.4946 0 12.5 0H10C9.00544 0 8.05161 0.395088 7.34835 1.09835C6.64509 1.80161 6.25 2.75544 6.25 3.75V5H1.25C0.918479 5 0.600537 5.1317 0.366116 5.36612C0.131696 5.60054 0 5.91848 0 6.25C0 6.58152 0.131696 6.89946 0.366116 7.13388C0.600537 7.3683 0.918479 7.5 1.25 7.5H2.5V21.25C2.5 22.2446 2.89509 23.1984 3.59835 23.9017C4.30161 24.6049 5.25544 25 6.25 25H16.25C17.2446 25 18.1984 24.6049 18.9017 23.9017C19.6049 23.1984 20 22.2446 20 21.25V7.5H21.25C21.5815 7.5 21.8995 7.3683 22.1339 7.13388C22.3683 6.89946 22.5 6.58152 22.5 6.25C22.5 5.91848 22.3683 5.60054 22.1339 5.36612C21.8995 5.1317 21.5815 5 21.25 5ZM8.75 3.75C8.75 3.41848 8.8817 3.10054 9.11612 2.86612C9.35054 2.6317 9.66848 2.5 10 2.5H12.5C12.8315 2.5 13.1495 2.6317 13.3839 2.86612C13.6183 3.10054 13.75 3.41848 13.75 3.75V5H8.75V3.75ZM17.5 21.25C17.5 21.5815 17.3683 21.8995 17.1339 22.1339C16.8995 22.3683 16.5815 22.5 16.25 22.5H6.25C5.91848 22.5 5.60054 22.3683 5.36612 22.1339C5.1317 21.8995 5 21.5815 5 21.25V7.5H17.5V21.25ZM13.75 20C14.0815 20 14.3995 19.8683 14.6339 19.6339C14.8683 19.3995 15 19.0815 15 18.75V11.25C15 10.9185 14.8683 10.6005 14.6339 10.3661C14.3995 10.1317 14.0815 10 13.75 10C13.4185 10 13.1005 10.1317 12.8661 10.3661C12.6317 10.6005 12.5 10.9185 12.5 11.25V18.75C12.5 19.0815 12.6317 19.3995 12.8661 19.6339C13.1005 19.8683 13.4185 20 13.75 20Z" fill="white"/>
</svg>
