<svg width="18" height="18" viewBox="0 0 18 18" fill="none" xmlns="http://www.w3.org/2000/svg">
<path d="M1.19081 1.76047C2.87702 0.0741062 3.97556 -0.373167 5.14718 0.300543C5.48421 0.494348 5.80019 0.766383 6.22982 1.20275L7.54725 2.56836C8.27516 3.36264 8.44144 4.12539 8.20442 5.01764L8.17161 5.13554L8.1347 5.25241L7.95939 5.77016C7.58244 6.92912 7.73959 7.58268 9.08099 8.92377C10.4761 10.3186 11.1275 10.4335 12.3761 9.99719L12.5986 9.91927L12.8672 9.83213L12.9851 9.79932C13.9333 9.54632 14.7345 9.74813 15.584 10.5969L16.6462 11.6232L16.9589 11.9308C17.3052 12.284 17.5341 12.5638 17.7032 12.8596C18.3727 14.0309 17.9258 15.1286 16.191 16.857L16.0259 17.0241C15.7669 17.2738 15.5243 17.453 15.1688 17.6218C14.5721 17.905 13.8666 18.0115 13.0476 17.8976C11.029 17.6167 8.46899 16.0237 5.2251 12.7807C4.96101 12.5167 4.70743 12.2575 4.4654 12.0036L3.99584 11.5022C-0.404077 6.72175 -0.792592 3.78486 1.01037 1.94296L1.12724 1.82711L1.19081 1.76047ZM4.49308 1.43855C4.08936 1.20639 3.65316 1.30416 2.84656 1.99833L2.59332 2.2249C2.54913 2.2657 2.50322 2.3081 2.45697 2.35203L2.16683 2.63602L2.14017 2.6678L1.94333 2.8667C1.46721 3.3531 1.24147 3.94652 1.43584 4.9674C1.75484 6.64278 3.21518 8.91585 6.15293 11.8529C9.21381 14.9129 11.5462 16.3636 13.2291 16.5976C14.21 16.734 14.7108 16.4971 15.2211 15.9743L15.6097 15.5806C15.7921 15.3897 15.9486 15.2168 16.0803 15.0588L16.2597 14.8322C16.7185 14.2209 16.7604 13.854 16.5642 13.5107C16.4895 13.3801 16.3808 13.2366 16.2228 13.0616L16.0085 12.835L15.8814 12.7079L14.5414 11.4151C14.0937 11.0023 13.7879 10.9436 13.3234 11.0675L13.1891 11.1055L12.6344 11.2941C11.0247 11.814 9.86323 11.5622 8.15316 9.85263C6.38188 8.08181 6.17357 6.89867 6.76704 5.19603L6.806 5.08633L6.91058 4.76953L6.96286 4.56756C7.05462 4.1276 6.94972 3.8205 6.4769 3.34753C6.45742 3.32806 6.43497 3.30594 6.41129 3.28192L5.16768 1.99525C4.88282 1.71442 4.67554 1.54351 4.49308 1.43855Z" fill="#F43F5E"/>
</svg>
