<svg width="17" height="20" viewBox="0 0 17 20" fill="none" xmlns="http://www.w3.org/2000/svg">
<path d="M13.8626 10.5689C13.8538 8.93019 14.585 7.69336 16.0651 6.78248C15.237 5.58137 13.986 4.92053 12.3341 4.79105C10.7703 4.66602 9.06114 5.71532 8.43563 5.71532C7.77487 5.71532 6.25954 4.8357 5.07019 4.8357C2.61218 4.87588 0 6.82266 0 10.7832C0 11.9531 0.211441 13.1616 0.634324 14.4089C1.19817 16.0476 3.23329 20.0661 5.35651 19.9992C6.46658 19.9724 7.25067 19.1999 8.69552 19.1999C10.0963 19.1999 10.8231 19.9992 12.061 19.9992C14.2018 19.9679 16.0431 16.3155 16.5805 14.6723C13.7084 13.3015 13.8626 10.6537 13.8626 10.5689ZM11.3694 3.23719C12.5719 1.7905 12.4618 0.4733 12.4266 0C11.365 0.0625113 10.136 0.732276 9.43557 1.55832C8.66469 2.44241 8.21097 3.53636 8.30788 4.76872C9.45759 4.85802 10.506 4.2597 11.3694 3.23719Z" fill="black"/>
</svg>
