<svg width="16" height="16" viewBox="0 0 16 16" fill="none" xmlns="http://www.w3.org/2000/svg">
<path d="M7.15172 3.26565C7.43219 3.22266 7.71555 3.20127 7.9993 3.20168C10.542 3.20168 12.9329 5.03277 14.3242 7.9993C14.1114 8.45075 13.871 8.88869 13.6045 9.31065C13.5199 9.44163 13.4754 9.5945 13.4766 9.75043C13.4784 9.92494 13.5372 10.0941 13.6441 10.232C13.751 10.37 13.9 10.4692 14.0686 10.5145C14.2371 10.5598 14.4158 10.5487 14.5775 10.4829C14.7391 10.4172 14.8748 10.3003 14.9638 10.1502C15.3364 9.56487 15.66 8.94975 15.9314 8.31115C15.9743 8.21137 15.9964 8.10391 15.9964 7.9953C15.9964 7.8867 15.9743 7.77923 15.9314 7.67946C14.3162 3.92932 11.2777 1.60248 7.9993 1.60248C7.62402 1.60059 7.24934 1.6327 6.87986 1.69843C6.77485 1.71628 6.67439 1.75464 6.58421 1.81132C6.49403 1.86799 6.41589 1.94188 6.35427 2.02875C6.29264 2.11562 6.24873 2.21378 6.22503 2.31762C6.20134 2.42147 6.19834 2.52896 6.21619 2.63397C6.23404 2.73897 6.2724 2.83943 6.32907 2.92961C6.38575 3.01979 6.45963 3.09793 6.5465 3.15956C6.63338 3.22118 6.73154 3.2651 6.83538 3.28879C6.93922 3.31248 7.04672 3.31549 7.15172 3.29764V3.26565ZM1.37059 0.235157C1.29604 0.160603 1.20753 0.101463 1.11012 0.0611152C1.01271 0.0207669 0.90831 0 0.802875 0C0.69744 0 0.593037 0.0207669 0.495628 0.0611152C0.398219 0.101463 0.30971 0.160603 0.235157 0.235157C0.0845883 0.385725 0 0.589939 0 0.802875C0 1.01581 0.0845883 1.22002 0.235157 1.37059L2.71393 3.84137C1.58295 4.93005 0.68282 6.23537 0.0672399 7.67946C0.0232111 7.78034 0.000485179 7.88923 0.000485179 7.9993C0.000485179 8.10937 0.0232111 8.21826 0.0672399 8.31914C1.68244 12.0693 4.72093 14.3961 7.9993 14.3961C9.43627 14.3862 10.8393 13.9583 12.0373 13.1647L14.628 15.7634C14.7023 15.8384 14.7908 15.8979 14.8882 15.9385C14.9857 15.9791 15.0902 16 15.1957 16C15.3013 16 15.4058 15.9791 15.5032 15.9385C15.6007 15.8979 15.6891 15.8384 15.7634 15.7634C15.8384 15.6891 15.8979 15.6007 15.9385 15.5032C15.9791 15.4058 16 15.3013 16 15.1957C16 15.0902 15.9791 14.9857 15.9385 14.8882C15.8979 14.7908 15.8384 14.7023 15.7634 14.628L1.37059 0.235157ZM6.45607 7.58351L8.4151 9.54254C8.27995 9.58129 8.13988 9.60014 7.9993 9.59851C7.57517 9.59851 7.1684 9.43002 6.86849 9.13011C6.56858 8.8302 6.4001 8.42344 6.4001 7.9993C6.39846 7.85872 6.41731 7.71865 6.45607 7.58351ZM7.9993 12.7969C5.45656 12.7969 3.06575 10.9658 1.68244 7.9993C2.19905 6.85887 2.93227 5.82964 3.84137 4.96881L5.25666 6.4001C4.92423 7.00683 4.79748 7.705 4.89545 8.38987C4.99342 9.07474 5.31081 9.70938 5.80001 10.1986C6.28922 10.6878 6.92386 11.0052 7.60873 11.1032C8.2936 11.2011 8.99177 11.0744 9.59851 10.7419L10.8699 11.9973C9.99918 12.5098 9.00954 12.7854 7.9993 12.7969Z" fill="#111113" fill-opacity="0.6"/>
</svg>
