<svg width="21" height="21" viewBox="0 0 21 21" fill="none" xmlns="http://www.w3.org/2000/svg">
<path d="M0 2.625C0 1.92881 0.276562 1.26113 0.768845 0.768845C1.26113 0.276562 1.92881 0 2.625 0H13.7083C14.4045 0 15.0722 0.276562 15.5645 0.768845C16.0568 1.26113 16.3333 1.92881 16.3333 2.625V12.8333H21V17.2083C21 18.2139 20.6005 19.1784 19.8894 19.8894C19.1784 20.6005 18.2139 21 17.2083 21H3.79167C2.78605 21 1.82163 20.6005 1.11055 19.8894C0.399478 19.1784 0 18.2139 0 17.2083V2.625ZM16.3333 19.25H17.2083C17.7498 19.25 18.2691 19.0349 18.652 18.652C19.0349 18.2691 19.25 17.7498 19.25 17.2083V14.5833H16.3333V19.25ZM2.625 1.75C2.39294 1.75 2.17038 1.84219 2.00628 2.00628C1.84219 2.17038 1.75 2.39294 1.75 2.625V17.2083C1.75 18.3353 2.66467 19.25 3.79167 19.25H14.5833V2.625C14.5833 2.39294 14.4911 2.17038 14.3271 2.00628C14.163 1.84219 13.9404 1.75 13.7083 1.75H2.625ZM4.95833 4.66667C4.72627 4.66667 4.50371 4.75885 4.33961 4.92295C4.17552 5.08704 4.08333 5.3096 4.08333 5.54167C4.08333 5.77373 4.17552 5.99629 4.33961 6.16038C4.50371 6.32448 4.72627 6.41667 4.95833 6.41667H11.375C11.6071 6.41667 11.8296 6.32448 11.9937 6.16038C12.1578 5.99629 12.25 5.77373 12.25 5.54167C12.25 5.3096 12.1578 5.08704 11.9937 4.92295C11.8296 4.75885 11.6071 4.66667 11.375 4.66667H4.95833ZM4.08333 10.2083C4.08333 9.97627 4.17552 9.75371 4.33961 9.58961C4.50371 9.42552 4.72627 9.33333 4.95833 9.33333H11.375C11.6071 9.33333 11.8296 9.42552 11.9937 9.58961C12.1578 9.75371 12.25 9.97627 12.25 10.2083C12.25 10.4404 12.1578 10.663 11.9937 10.8271C11.8296 10.9911 11.6071 11.0833 11.375 11.0833H4.95833C4.72627 11.0833 4.50371 10.9911 4.33961 10.8271C4.17552 10.663 4.08333 10.4404 4.08333 10.2083ZM4.95833 14C4.72627 14 4.50371 14.0922 4.33961 14.2563C4.17552 14.4204 4.08333 14.6429 4.08333 14.875C4.08333 15.1071 4.17552 15.3296 4.33961 15.4937C4.50371 15.6578 4.72627 15.75 4.95833 15.75H8.45833C8.6904 15.75 8.91296 15.6578 9.07705 15.4937C9.24115 15.3296 9.33333 15.1071 9.33333 14.875C9.33333 14.6429 9.24115 14.4204 9.07705 14.2563C8.91296 14.0922 8.6904 14 8.45833 14H4.95833Z" fill="#212121"/>
</svg>
