<svg width="18" height="12" viewBox="0 0 18 12" fill="none" xmlns="http://www.w3.org/2000/svg">
<path d="M1 8.5H2C2.27614 8.5 2.5 8.72386 2.5 9V11C2.5 11.2761 2.27614 11.5 2 11.5H1C0.723858 11.5 0.5 11.2761 0.5 11V9C0.5 8.72386 0.723858 8.5 1 8.5ZM6 6H7C7.27614 6 7.5 6.22386 7.5 6.5V11C7.5 11.2761 7.27614 11.5 7 11.5H6C5.72386 11.5 5.5 11.2761 5.5 11V6.5C5.5 6.22386 5.72386 6 6 6ZM11 2.5H12C12.2761 2.5 12.5 2.72386 12.5 3V11C12.5 11.2761 12.2761 11.5 12 11.5H11C10.7239 11.5 10.5 11.2761 10.5 11V3C10.5 2.72386 10.7239 2.5 11 2.5ZM16 0.5H17C17.2761 0.5 17.5 0.723858 17.5 1V11C17.5 11.2761 17.2761 11.5 17 11.5H16C15.7239 11.5 15.5 11.2761 15.5 11V1C15.5 0.723858 15.7239 0.5 16 0.5Z" fill="black" stroke="black"/>
</svg>
