<svg width="25" height="24" viewBox="0 0 25 24" fill="none" xmlns="http://www.w3.org/2000/svg">
<g filter="url(#filter0_d_0_327)">
<path d="M22.8749 10.0244C22.9789 9.50449 22.563 8.88063 22.0431 8.88063L16.1164 8.04881L13.413 2.64201C13.3091 2.43405 13.2051 2.33008 12.9971 2.2261C12.4772 1.91417 11.8534 2.12212 11.5414 2.64201L8.94202 8.04881L3.01533 8.88063C2.7034 8.88063 2.49545 8.9846 2.39147 9.19256C1.97556 9.60847 1.97556 10.2323 2.39147 10.6482L6.65453 14.8073L5.61476 20.734C5.61476 20.942 5.61476 21.1499 5.71873 21.3579C6.03067 21.8778 6.65453 22.0857 7.17441 21.7738L12.4772 18.9664L17.7801 21.7738C17.884 21.8778 18.092 21.8778 18.2999 21.8778C18.4039 21.8778 18.4039 21.8778 18.5079 21.8778C19.0278 21.7738 19.4437 21.2539 19.3397 20.63L18.2999 14.7033L22.563 10.5443C22.771 10.4403 22.8749 10.2323 22.8749 10.0244Z" fill="#FF664D"/>
</g>
<defs>
<filter id="filter0_d_0_327" x="0" y="0" width="24.9705" height="24" filterUnits="userSpaceOnUse" color-interpolation-filters="sRGB">
<feFlood flood-opacity="0" result="BackgroundImageFix"/>
<feColorMatrix in="SourceAlpha" type="matrix" values="0 0 0 0 0 0 0 0 0 0 0 0 0 0 0 0 0 0 127 0" result="hardAlpha"/>
<feOffset/>
<feGaussianBlur stdDeviation="1"/>
<feComposite in2="hardAlpha" operator="out"/>
<feColorMatrix type="matrix" values="0 0 0 0 0 0 0 0 0 0 0 0 0 0 0 0 0 0 0.75 0"/>
<feBlend mode="normal" in2="BackgroundImageFix" result="effect1_dropShadow_0_327"/>
<feBlend mode="normal" in="SourceGraphic" in2="effect1_dropShadow_0_327" result="shape"/>
</filter>
</defs>
</svg>
