<svg width="25" height="24" viewBox="0 0 25 24" fill="none" xmlns="http://www.w3.org/2000/svg">
<g filter="url(#filter0_d_0_6)">
<path d="M22.8751 10.0244C22.979 9.50454 22.5631 8.88067 22.0432 8.88067L16.1165 8.04885L13.4131 2.64202C13.3091 2.43407 13.2051 2.33009 12.9972 2.22611C12.4773 1.91418 11.8534 2.12213 11.5415 2.64202L8.94207 8.04885L3.01535 8.88067C2.70342 8.88067 2.49546 8.98465 2.39148 9.19261C1.97557 9.60852 1.97557 10.2324 2.39148 10.6483L6.65456 14.8074L5.61479 20.7341C5.61479 20.9421 5.61479 21.15 5.71876 21.358C6.0307 21.8779 6.65456 22.0858 7.17445 21.7739L12.4773 18.9665L17.7802 21.7739C17.8841 21.8779 18.0921 21.8779 18.3 21.8779C18.404 21.8779 18.404 21.8779 18.508 21.8779C19.0279 21.7739 19.4438 21.254 19.3398 20.6301L18.3 14.7034L22.5631 10.5443C22.7711 10.4403 22.8751 10.2324 22.8751 10.0244Z" fill="#FF664D"/>
</g>
<defs>
<filter id="filter0_d_0_6" x="0" y="0" width="24.9706" height="24" filterUnits="userSpaceOnUse" color-interpolation-filters="sRGB">
<feFlood flood-opacity="0" result="BackgroundImageFix"/>
<feColorMatrix in="SourceAlpha" type="matrix" values="0 0 0 0 0 0 0 0 0 0 0 0 0 0 0 0 0 0 127 0" result="hardAlpha"/>
<feOffset/>
<feGaussianBlur stdDeviation="1"/>
<feComposite in2="hardAlpha" operator="out"/>
<feColorMatrix type="matrix" values="0 0 0 0 0 0 0 0 0 0 0 0 0 0 0 0 0 0 0.75 0"/>
<feBlend mode="normal" in2="BackgroundImageFix" result="effect1_dropShadow_0_6"/>
<feBlend mode="normal" in="SourceGraphic" in2="effect1_dropShadow_0_6" result="shape"/>
</filter>
</defs>
</svg>
