<svg width="25" height="24" viewBox="0 0 25 24" fill="none" xmlns="http://www.w3.org/2000/svg">
<g filter="url(#filter0_d_0_334)">
<path d="M22.8752 10.0245C22.9792 9.50459 22.5632 8.88072 22.0434 8.88072L16.1166 8.0489L13.4132 2.64204C13.3092 2.43408 13.2052 2.3301 12.9973 2.22612C12.4774 1.91419 11.8535 2.12214 11.5416 2.64204L8.94212 8.0489L3.01536 8.88072C2.70343 8.88072 2.49547 8.9847 2.3915 9.19265C1.97558 9.60857 1.97558 10.2324 2.3915 10.6483L6.6546 14.8075L5.61482 20.7342C5.61482 20.9422 5.61482 21.1501 5.71879 21.3581C6.03073 21.878 6.6546 22.0859 7.17449 21.774L12.4774 18.9666L17.7803 21.774C17.8842 21.878 18.0922 21.878 18.3001 21.878C18.4041 21.878 18.4041 21.878 18.5081 21.878C19.028 21.774 19.4439 21.2541 19.3399 20.6302L18.3001 14.7035L22.5632 10.5444C22.7712 10.4404 22.8752 10.2324 22.8752 10.0245Z" fill="#FF664D"/>
</g>
<defs>
<filter id="filter0_d_0_334" x="0" y="0" width="24.9707" height="24" filterUnits="userSpaceOnUse" color-interpolation-filters="sRGB">
<feFlood flood-opacity="0" result="BackgroundImageFix"/>
<feColorMatrix in="SourceAlpha" type="matrix" values="0 0 0 0 0 0 0 0 0 0 0 0 0 0 0 0 0 0 127 0" result="hardAlpha"/>
<feOffset/>
<feGaussianBlur stdDeviation="1"/>
<feComposite in2="hardAlpha" operator="out"/>
<feColorMatrix type="matrix" values="0 0 0 0 0 0 0 0 0 0 0 0 0 0 0 0 0 0 0.75 0"/>
<feBlend mode="normal" in2="BackgroundImageFix" result="effect1_dropShadow_0_334"/>
<feBlend mode="normal" in="SourceGraphic" in2="effect1_dropShadow_0_334" result="shape"/>
</filter>
</defs>
</svg>
