<svg version="1.2" xmlns="http://www.w3.org/2000/svg" viewBox="0 0 602 132" width="602" height="132">
	<title>Mesa de trabajo 1 copia 18KM0LAB</title>
	<style>
		.s0 { fill: #164194 } 
		.s1 { fill: #ffecd2 } 
		.s2 { fill: #036de0 } 
		.s3 { fill: #ff674c } 
	</style>
	<path fill-rule="evenodd" class="s0" d="m28.2 18.5h550.1c5.6 0 10.1 4.5 10.1 10.1v83.7c0 5.5-4.5 10.1-10.1 10.1h-550.1c-5.5 0-10.1-4.6-10.1-10.2v-83.6c0-5.6 4.6-10.1 10.1-10.1z"/>
	<path class="s1" d="m90.7 101.5l-5.2-6.6c-2.6-3.4-8.1-1.6-8.1 2.7v1.2c0 2.5-2 4.5-4.5 4.5h-21.4c-2.5 0-4.6-2-4.6-4.5v-50.3c0-2.5 2.1-4.5 4.6-4.5h21.4c2.5 0 4.5 2 4.5 4.5v2.9c0 4.5 5.9 6.2 8.4 2.4l4.9-7.7c0.8-1.3 2.3-2.1 3.8-2.1h23.1c4.2 0 6.5 4.9 3.9 8.2l-16 19.5c-1.3 1.6-1.3 4 0 5.7l15.1 18.5c2.4 3 0.3 7.4-3.5 7.4h-22.8c-1.4 0-2.8-0.6-3.6-1.8z"/>
	<path class="s1" d="m189.1 100.5v-11c0-3.1-4.4-3.9-5.4-0.9l-4.3 12.8c-0.4 1.2-1.5 1.9-2.7 1.9h-12.6c-1.2 0-2.3-0.7-2.7-1.8l-4.3-12.4c-1.1-3-5.4-2.2-5.4 0.9v10.5c0 1.6-1.2 2.8-2.8 2.8h-23.2c-1.6 0-2.8-1.2-2.8-2.8v-53.7c0-1.6 1.2-2.8 2.8-2.8h33.4c1.2 0 2.3 0.8 2.6 1.9l6.1 18.7c0.8 2.6 4.4 2.6 5.2 0l6.1-18.7c0.4-1.1 1.4-1.9 2.6-1.9h33.8c1.5 0 2.8 1.2 2.8 2.8v53.7c0 1.6-1.3 2.8-2.8 2.8h-23.6c-1.5 0-2.8-1.2-2.8-2.8z"/>
	<path class="s1" d="m314.8 98.6v-49.7c0-2.7 2.1-4.8 4.8-4.8h20.8c2.7 0 4.8 2.1 4.8 4.8v28.7c0 2.7 2.2 4.8 4.8 4.8h16.4c2.7 0 4.8 2.2 4.8 4.8v11.4c0 2.6-2.1 4.8-4.8 4.8h-46.8c-2.7 0-4.8-2.2-4.8-4.8z"/>
	<path class="s1" d="m424 100l-0.2-0.9c-0.6-2-2.4-3.4-4.5-3.4h-12.8c-2 0-3.9 1.4-4.4 3.4l-0.3 0.9c-0.5 2-2.4 3.4-4.5 3.4h-21.2c-3.1 0-5.4-3.1-4.4-6.1l15.9-50c0.7-1.9 2.5-3.2 4.5-3.2h41.4c2.1 0 3.9 1.3 4.5 3.3l15.7 49.9c1 3-1.3 6.1-4.4 6.1h-20.8c-2.1 0-3.9-1.4-4.5-3.4zm-13.2-32.3l-3 8.6c-0.5 1.6 0.7 3.3 2.3 3.3h5.8c1.7 0 2.8-1.7 2.3-3.2l-2.8-8.7c-0.7-2.2-3.9-2.2-4.6 0z"/>
	<path class="s1" d="m454.5 47.5c0-1.9 1.5-3.4 3.4-3.4h57.2c5.7 0 9.3 1.1 12.5 3.6 3.2 2.7 5 6.4 5 10.5 0 4.8-2.3 9.2-6.4 11.9q-0.2 0.2-0.4 0.3c-2.2 1.4-2 4.7 0.4 5.9q0 0 0.1 0c4.1 2 6.7 6.4 6.7 11.2 0 9.6-8.7 15.9-22.1 15.9h-52.9c-1.9 0-3.5-1.6-3.5-3.5v-52.4zm41.9 21c4.2 0 5.7-1.1 5.7-4.4 0-3.3-1.5-4.4-5.7-4.4h-7.9c-1.9 0-3.5 1.5-3.5 3.4v2c0 1.9 1.6 3.4 3.5 3.4zm1.5 20.6c3.7 0 5.2-1.2 5.2-4.3 0-3.1-1.4-4.4-5.2-4.4h-9.5c-1.9 0-3.4 1.6-3.4 3.5v1.8c0 1.9 1.5 3.4 3.4 3.4z"/>
	<path class="s1" d="m559.6 49.5c0 7.5-6.6 13.5-14.8 13.5-8.2 0-14.9-6-14.9-13.5 0-7.5 6.6-13.7 15.1-13.7 8 0 14.6 6.2 14.6 13.7zm-26 0c0 5.5 5 10.1 11.2 10.1 6.1 0 11.1-4.6 11.1-10.1 0-5.6-5-10.2-11-10.2-6.3 0-11.2 4.5-11.2 10.2zm17.8 5.1c0 0.8-0.4 1.2-1 1.3-1.6 0.2-2.9 0.3-4.7 0.3-3.7 0-5.5-0.4-7.1-1.5-1.5-1.1-2.5-3.1-2.5-5.4 0-4.3 3-6.6 8.5-6.6 1.5 0 3 0.1 4.8 0.3 1.3 0.1 2.2 1.2 2.2 2.5 0 1.4-1.3 2.6-2.7 2.5-0.8-0.1-1.6-0.2-2.3-0.2-2.5 0-3.4 0.6-3.4 2.1 0 1.4 0.9 1.9 3.5 1.9q1 0 2-0.1c1.4-0.1 2.7 1 2.7 2.5 0 0 0 0.4 0 0.4z"/>
	<path class="s1" d="m299.1 62.9c-2.2-6.9-5.9-12.8-16-16.9-6.2-2.4-14.3-3.7-23.5-3.7-12.7 0-22.7 2.3-29.7 6.9-7.4 4.8-11.3 13.2-11.3 24.2 0 8.9 2.4 16.2 7 21.3 1.4 1.6 3.2 3.2 5.9 4.6q0.3 0.2 0.7 0.4c2.1 1.1 4.7 2.1 8.1 3.1 5.4 1.4 12 2.2 19.3 2.2 13.6 0 23.8-2.5 30.8-7.5 6.4-4.7 10.1-13.3 10.1-23.8q0-6-1.4-10.8zm-49.7 10.9c0-7.4 3.4-11.4 10.2-11.4q2.4 0 4.2 0.7c1.1 0.4 1.2 1.8 0.4 2.5l-12.5 9.4c-1 0.7-2.3 0-2.3-1.2zm10.2 14q-4.4 0-6.9-2.5c-0.6-0.6-0.5-1.6 0.2-2.2 3-2.2 10.8-8.1 14.5-10.9 0.9-0.7 2.3-0.1 2.3 1.1q0 0.2 0 0.5c0 9.4-3.4 14-10.1 14z"/>
	<path fill-rule="evenodd" class="s2" d="m28.2 142.2h550.1c5.6 0 10.1 4.5 10.1 10.1v83.6c0 5.6-4.5 10.1-10.1 10.1h-550.1c-5.5 0-10.1-4.5-10.1-10.1v-83.6c0-5.6 4.6-10.1 10.1-10.1z"/>
	<path class="s1" d="m90.7 225.2l-5.2-6.6c-2.6-3.5-8.1-1.6-8.1 2.7v1.2c0 2.5-2 4.5-4.5 4.5h-21.4c-2.5 0-4.6-2-4.6-4.5v-50.3c0-2.5 2.1-4.5 4.6-4.5h21.4c2.5 0 4.5 2 4.5 4.5v2.9c0 4.5 5.9 6.2 8.4 2.4l4.9-7.7c0.8-1.3 2.3-2.1 3.8-2.1h23.1c4.2 0 6.5 4.9 3.9 8.2l-16 19.5c-1.3 1.6-1.3 4 0 5.7l15.1 18.5c2.4 3 0.3 7.4-3.5 7.4h-22.8c-1.4 0-2.8-0.6-3.6-1.8z"/>
	<path class="s1" d="m189.1 224.2v-11c0-3.1-4.4-3.9-5.4-0.9l-4.3 12.8c-0.4 1.1-1.5 1.9-2.7 1.9h-12.6c-1.2 0-2.3-0.7-2.7-1.8l-4.3-12.4c-1.1-3-5.4-2.2-5.4 0.9v10.5c0 1.6-1.2 2.8-2.8 2.8h-23.2c-1.6 0-2.8-1.2-2.8-2.8v-53.7c0-1.6 1.2-2.8 2.8-2.8h33.4c1.2 0 2.3 0.8 2.6 1.9l6.1 18.7c0.8 2.6 4.4 2.6 5.2 0l6.1-18.7c0.4-1.1 1.4-1.9 2.6-1.9h33.8c1.5 0 2.8 1.2 2.8 2.8v53.7c0 1.6-1.3 2.8-2.8 2.8h-23.6c-1.5 0-2.8-1.2-2.8-2.8z"/>
	<path class="s1" d="m314.8 222.3v-49.7c0-2.7 2.1-4.8 4.8-4.8h20.8c2.7 0 4.8 2.1 4.8 4.8v28.7c0 2.6 2.2 4.8 4.8 4.8h16.4c2.7 0 4.8 2.1 4.8 4.8v11.4c0 2.6-2.1 4.8-4.8 4.8h-46.8c-2.7 0-4.8-2.2-4.8-4.8z"/>
	<path class="s1" d="m424 223.7l-0.2-0.9c-0.6-2-2.4-3.4-4.5-3.4h-12.8c-2 0-3.9 1.4-4.4 3.4l-0.3 0.9c-0.5 2-2.4 3.4-4.5 3.4h-21.2c-3.1 0-5.4-3.1-4.4-6.1l15.9-50c0.7-1.9 2.5-3.2 4.5-3.2h41.4c2.1 0 3.9 1.3 4.5 3.2l15.7 50c1 3-1.3 6.1-4.4 6.1h-20.8c-2.1 0-3.9-1.4-4.5-3.4zm-13.2-32.3l-3 8.6c-0.5 1.6 0.7 3.3 2.3 3.3h5.8c1.7 0 2.8-1.7 2.3-3.2l-2.8-8.7c-0.7-2.2-3.9-2.2-4.6 0z"/>
	<path class="s1" d="m454.5 171.2c0-1.9 1.5-3.4 3.4-3.4h57.2c5.7 0 9.3 1 12.5 3.6 3.2 2.7 5 6.4 5 10.5 0 4.8-2.3 9.2-6.4 11.9q-0.2 0.1-0.4 0.3c-2.2 1.4-2 4.7 0.4 5.9q0 0 0.1 0c4.1 2 6.7 6.4 6.7 11.2 0 9.6-8.7 15.9-22.1 15.9h-52.9c-1.9 0-3.5-1.6-3.5-3.5v-52.4zm41.9 21c4.2 0 5.7-1.1 5.7-4.4 0-3.3-1.5-4.4-5.7-4.4h-7.9c-1.9 0-3.5 1.5-3.5 3.4v2c0 1.9 1.6 3.4 3.5 3.4zm1.5 20.6c3.7 0 5.2-1.2 5.2-4.3 0-3.1-1.4-4.4-5.2-4.4h-9.5c-1.9 0-3.4 1.6-3.4 3.5v1.8c0 1.9 1.5 3.4 3.4 3.4z"/>
	<path class="s1" d="m559.6 173.1c0 7.5-6.6 13.6-14.8 13.6-8.2 0-14.9-6.1-14.9-13.6 0-7.4 6.6-13.6 15.1-13.6 8 0 14.6 6.2 14.6 13.6zm-26 0c0 5.6 5 10.2 11.2 10.2 6.1 0 11.1-4.6 11.1-10.2 0-5.5-5-10.1-11-10.1-6.3 0-11.2 4.4-11.2 10.1zm17.8 5.2c0 0.8-0.4 1.2-1 1.3-1.6 0.2-2.9 0.3-4.7 0.3-3.7 0-5.5-0.4-7.1-1.5-1.5-1.1-2.5-3.1-2.5-5.4 0-4.3 3-6.7 8.5-6.7 1.5 0 3 0.1 4.8 0.4 1.3 0.1 2.2 1.2 2.2 2.5 0 1.4-1.3 2.6-2.7 2.5-0.8-0.1-1.6-0.2-2.3-0.2-2.5 0-3.4 0.6-3.4 2.1 0 1.4 0.9 1.9 3.5 1.9q1 0 2-0.1c1.4-0.1 2.7 1 2.7 2.5 0 0 0 0.4 0 0.4z"/>
	<path class="s1" d="m299.1 186.6c-2.2-6.9-5.9-12.8-16-16.9-6.2-2.4-14.3-3.7-23.5-3.7-12.7 0-22.7 2.3-29.7 6.9-7.4 4.8-11.3 13.2-11.3 24.2 0 8.9 2.4 16.2 7 21.3 1.4 1.6 3.2 3.1 5.9 4.6q0.3 0.2 0.7 0.4c2.1 1.1 4.7 2.1 8.1 3.1 5.4 1.4 12 2.2 19.3 2.2 13.6 0 23.8-2.5 30.8-7.5 6.4-4.7 10.1-13.3 10.1-23.8q0-6-1.4-10.8zm-49.7 10.9c0-7.4 3.4-11.4 10.2-11.4q2.4 0 4.2 0.7c1.1 0.4 1.2 1.8 0.4 2.4l-12.5 9.5c-1 0.7-2.3 0-2.3-1.2zm10.2 14q-4.4 0-6.9-2.5c-0.6-0.6-0.5-1.6 0.2-2.2 3-2.2 10.8-8.1 14.5-10.9 0.9-0.7 2.3-0.1 2.3 1q0 0.3 0 0.6c0 9.4-3.4 14-10.1 14z"/>
	<path fill-rule="evenodd" class="s3" d="m28.2 265.9h550.1c5.6 0 10.1 4.5 10.1 10.1v83.6c0 5.6-4.5 10.1-10.1 10.1h-550.1c-5.5 0-10.1-4.5-10.1-10.1v-83.6c0-5.6 4.6-10.1 10.1-10.1z"/>
	<path class="s1" d="m90.7 348.9l-5.2-6.6c-2.6-3.5-8.1-1.6-8.1 2.7v1.2c0 2.5-2 4.5-4.5 4.5h-21.4c-2.5 0-4.6-2-4.6-4.5v-50.3c0-2.5 2.1-4.5 4.6-4.5h21.4c2.5 0 4.5 2 4.5 4.5v2.9c0 4.5 5.9 6.2 8.4 2.4l4.9-7.7c0.8-1.3 2.3-2.1 3.8-2.1h23.1c4.2 0 6.5 4.9 3.9 8.2l-16 19.4c-1.3 1.7-1.3 4.1 0 5.7l15.1 18.6c2.4 3 0.3 7.4-3.5 7.4h-22.8c-1.4 0-2.8-0.7-3.6-1.8z"/>
	<path class="s1" d="m189.1 347.9v-11c0-3.1-4.4-3.9-5.4-0.9l-4.3 12.8c-0.4 1.1-1.5 1.9-2.7 1.9h-12.6c-1.2 0-2.3-0.7-2.7-1.9l-4.3-12.4c-1.1-2.9-5.4-2.1-5.4 1v10.5c0 1.6-1.2 2.8-2.8 2.8h-23.2c-1.6 0-2.8-1.2-2.8-2.8v-53.7c0-1.6 1.2-2.8 2.8-2.8h33.4c1.2 0 2.3 0.8 2.6 1.9l6.1 18.7c0.8 2.6 4.4 2.6 5.2 0l6.1-18.7c0.4-1.1 1.4-1.9 2.6-1.9h33.8c1.5 0 2.8 1.2 2.8 2.8v53.7c0 1.5-1.3 2.8-2.8 2.8h-23.6c-1.5 0-2.8-1.3-2.8-2.8z"/>
	<path class="s1" d="m314.8 346v-49.7c0-2.7 2.1-4.8 4.8-4.8h20.8c2.7 0 4.8 2.1 4.8 4.8v28.7c0 2.6 2.2 4.8 4.8 4.8h16.4c2.7 0 4.8 2.1 4.8 4.8v11.4c0 2.6-2.1 4.8-4.8 4.8h-46.8c-2.7 0-4.8-2.2-4.8-4.8z"/>
	<path class="s1" d="m424 347.4l-0.2-0.9c-0.6-2-2.4-3.4-4.5-3.4h-12.8c-2 0-3.9 1.4-4.4 3.4l-0.3 0.9c-0.5 2-2.4 3.4-4.5 3.4h-21.2c-3.1 0-5.4-3.1-4.4-6.1l15.9-50c0.7-1.9 2.5-3.2 4.5-3.2h41.4c2.1 0 3.9 1.3 4.5 3.2l15.7 50c1 3-1.3 6.1-4.4 6.1h-20.8c-2.1 0-3.9-1.4-4.5-3.4zm-13.2-32.3l-3 8.6c-0.5 1.6 0.7 3.2 2.3 3.2h5.8c1.7 0 2.8-1.6 2.3-3.1l-2.8-8.7c-0.7-2.2-3.9-2.3-4.6 0z"/>
	<path class="s1" d="m454.5 294.9c0-1.9 1.5-3.4 3.4-3.4h57.2c5.7 0 9.3 1 12.5 3.6 3.2 2.7 5 6.4 5 10.5 0 4.8-2.3 9.2-6.4 11.9q-0.2 0.1-0.4 0.2c-2.2 1.5-2 4.8 0.4 6q0 0 0.1 0c4.1 2 6.7 6.3 6.7 11.2 0 9.6-8.7 15.9-22.1 15.9h-52.9c-1.9 0-3.5-1.6-3.5-3.5v-52.4zm41.9 21c4.2 0 5.7-1.2 5.7-4.4 0-3.3-1.5-4.4-5.7-4.4h-7.9c-1.9 0-3.5 1.5-3.5 3.4v2c0 1.9 1.6 3.4 3.5 3.4zm1.5 20.6c3.7 0 5.2-1.2 5.2-4.3 0-3.2-1.4-4.4-5.2-4.4h-9.5c-1.9 0-3.4 1.5-3.4 3.4v1.9c0 1.9 1.5 3.4 3.4 3.4z"/>
	<path class="s1" d="m559.6 296.8c0 7.5-6.6 13.6-14.8 13.6-8.2 0-14.9-6.1-14.9-13.6 0-7.5 6.6-13.6 15.1-13.6 8 0 14.6 6.2 14.6 13.6zm-26 0c0 5.6 5 10.1 11.2 10.1 6.1 0 11.1-4.5 11.1-10.1 0-5.6-5-10.1-11-10.1-6.3 0-11.2 4.4-11.2 10.1zm17.8 5.1c0 0.9-0.4 1.3-1 1.4-1.6 0.2-2.9 0.3-4.7 0.3-3.7 0-5.5-0.4-7.1-1.5-1.5-1.2-2.5-3.2-2.5-5.4 0-4.4 3-6.7 8.5-6.7 1.5 0 3 0.1 4.8 0.4 1.3 0.1 2.2 1.2 2.2 2.4 0 1.5-1.3 2.7-2.7 2.5-0.8 0-1.6-0.1-2.3-0.1-2.5 0-3.4 0.6-3.4 2.1 0 1.4 0.9 1.9 3.5 1.9q1 0 2-0.1c1.4-0.1 2.7 1 2.7 2.5 0 0 0 0.3 0 0.3z"/>
	<path class="s1" d="m299.1 310.3c-2.2-6.9-5.9-12.8-16-16.9-6.2-2.4-14.3-3.7-23.5-3.7-12.7 0-22.7 2.3-29.7 6.8-7.4 4.8-11.3 13.3-11.3 24.3 0 8.9 2.4 16.1 7 21.3 1.4 1.6 3.2 3.1 5.9 4.6q0.3 0.2 0.7 0.3c2.1 1.1 4.7 2.2 8.1 3.2 5.4 1.4 12 2.2 19.3 2.2 13.6 0 23.8-2.5 30.8-7.5 6.4-4.7 10.1-13.3 10.1-23.8q0-6-1.4-10.8zm-49.7 10.9c0-7.5 3.4-11.5 10.2-11.5q2.4 0.1 4.2 0.8c1.1 0.4 1.2 1.8 0.4 2.4l-12.5 9.5c-1 0.7-2.3 0-2.3-1.2zm10.2 14q-4.4 0-6.9-2.5c-0.6-0.6-0.5-1.7 0.2-2.2 3-2.2 10.8-8.1 14.5-11 0.9-0.7 2.3 0 2.3 1.1q0 0.3 0 0.6c0 9.3-3.4 14-10.1 14z"/>
	<path fill-rule="evenodd" class="s1" d="m28.2 389.5h550.1c5.6 0 10.1 4.6 10.1 10.1v83.7c0 5.6-4.5 10.1-10.1 10.1h-550.1c-5.5 0-10.1-4.5-10.1-10.1v-83.7c0-5.5 4.6-10.1 10.1-10.1z"/>
	<path class="s0" d="m90.7 472.6l-5.2-6.7c-2.6-3.4-8.1-1.5-8.1 2.8v1.2c0 2.5-2 4.5-4.5 4.5h-21.4c-2.5 0-4.6-2-4.6-4.5v-50.3c0-2.5 2.1-4.5 4.6-4.5h21.4c2.5 0 4.5 2 4.5 4.5v2.8c0 4.6 5.9 6.3 8.4 2.5l4.9-7.8c0.8-1.3 2.3-2 3.8-2h23.1c4.2 0 6.5 4.9 3.9 8.1l-16 19.5c-1.3 1.7-1.3 4 0 5.7l15.1 18.6c2.4 3 0.3 7.4-3.5 7.4h-22.8c-1.4 0-2.8-0.7-3.6-1.8z"/>
	<path class="s0" d="m189.1 471.6v-11c0-3.2-4.4-3.9-5.4-0.9l-4.3 12.8c-0.4 1.1-1.5 1.9-2.7 1.9h-12.6c-1.2 0-2.3-0.8-2.7-1.9l-4.3-12.4c-1.1-2.9-5.4-2.2-5.4 1v10.5c0 1.5-1.2 2.8-2.8 2.8h-23.2c-1.6 0-2.8-1.3-2.8-2.8v-53.8c0-1.5 1.2-2.7 2.8-2.7h33.4c1.2 0 2.3 0.8 2.6 1.9l6.1 18.7c0.8 2.6 4.4 2.6 5.2 0l6.1-18.7c0.4-1.2 1.4-1.9 2.6-1.9h33.8c1.5 0 2.8 1.2 2.8 2.7v53.8c0 1.5-1.3 2.8-2.8 2.8h-23.6c-1.5 0-2.8-1.3-2.8-2.8z"/>
	<path class="s0" d="m314.8 469.6v-49.7c0-2.6 2.1-4.8 4.8-4.8h20.8c2.7 0 4.8 2.2 4.8 4.8v28.8c0 2.6 2.2 4.8 4.8 4.8h16.4c2.7 0 4.8 2.1 4.8 4.8v11.3c0 2.7-2.1 4.8-4.8 4.8h-46.8c-2.7 0-4.8-2.1-4.8-4.8z"/>
	<path class="s0" d="m424 471l-0.2-0.8c-0.6-2-2.4-3.4-4.5-3.4h-12.8c-2 0-3.9 1.4-4.4 3.4l-0.3 0.8c-0.5 2-2.4 3.4-4.5 3.4h-21.2c-3.1 0-5.4-3-4.4-6l15.9-50c0.7-1.9 2.5-3.3 4.5-3.3h41.4c2.1 0 3.9 1.4 4.5 3.3l15.7 50c1 3-1.3 6.1-4.4 6.1h-20.8c-2.1 0-3.9-1.4-4.5-3.5zm-13.2-32.3l-3 8.7c-0.5 1.6 0.7 3.2 2.3 3.2h5.8c1.7 0 2.8-1.6 2.3-3.2l-2.8-8.6c-0.7-2.3-3.9-2.3-4.6-0.1z"/>
	<path class="s0" d="m454.5 418.6c0-1.9 1.5-3.5 3.4-3.5h57.2c5.7 0 9.3 1.1 12.5 3.7 3.2 2.7 5 6.4 5 10.5 0 4.8-2.3 9.1-6.4 11.9q-0.2 0.1-0.4 0.2c-2.2 1.5-2 4.8 0.4 6q0 0 0.1 0c4.1 2 6.7 6.3 6.7 11.2 0 9.6-8.7 15.8-22.1 15.8h-52.9c-1.9 0-3.5-1.5-3.5-3.4v-52.4zm41.9 21c4.2 0 5.7-1.2 5.7-4.5 0-3.3-1.5-4.3-5.7-4.3h-7.9c-1.9 0-3.5 1.5-3.5 3.4v1.9c0 1.9 1.6 3.5 3.5 3.5zm1.5 20.6c3.7 0 5.2-1.2 5.2-4.4 0-3.1-1.4-4.3-5.2-4.3h-9.5c-1.9 0-3.4 1.5-3.4 3.4v1.9c0 1.9 1.5 3.4 3.4 3.4z"/>
	<path class="s0" d="m559.6 420.5c0 7.5-6.6 13.6-14.8 13.6-8.2 0-14.9-6.1-14.9-13.6 0-7.5 6.6-13.6 15.1-13.6 8 0 14.6 6.2 14.6 13.6zm-26 0c0 5.6 5 10.1 11.2 10.1 6.1 0 11.1-4.5 11.1-10.1 0-5.6-5-10.1-11-10.1-6.3 0-11.2 4.4-11.2 10.1zm17.8 5.1c0 0.8-0.4 1.3-1 1.4-1.6 0.2-2.9 0.3-4.7 0.3-3.7 0-5.5-0.4-7.1-1.5-1.5-1.2-2.5-3.2-2.5-5.4 0-4.4 3-6.7 8.5-6.7 1.5 0 3 0.1 4.8 0.3 1.3 0.2 2.2 1.3 2.2 2.5 0 1.5-1.3 2.7-2.7 2.5-0.8 0-1.6-0.1-2.3-0.1-2.5 0-3.4 0.6-3.4 2 0 1.5 0.9 2 3.5 2q1-0.1 2-0.1c1.4-0.2 2.7 1 2.7 2.5 0 0 0 0.3 0 0.3z"/>
	<path class="s0" d="m299.1 434c-2.2-7-5.9-12.8-16-16.9-6.2-2.4-14.3-3.7-23.5-3.7-12.7 0-22.7 2.3-29.7 6.8-7.4 4.8-11.3 13.3-11.3 24.3 0 8.9 2.4 16.1 7 21.3 1.4 1.5 3.2 3.1 5.9 4.6q0.3 0.2 0.7 0.3c2.1 1.1 4.7 2.2 8.1 3.2 5.4 1.4 12 2.2 19.3 2.2 13.6 0 23.8-2.5 30.8-7.5 6.4-4.7 10.1-13.4 10.1-23.8q0-6-1.4-10.8zm-49.7 10.9c0-7.5 3.4-11.5 10.2-11.5q2.4 0 4.2 0.8c1.1 0.4 1.2 1.8 0.4 2.4l-12.5 9.5c-1 0.7-2.3 0-2.3-1.2zm10.2 14q-4.4-0.1-6.9-2.5c-0.6-0.6-0.5-1.7 0.2-2.2 3-2.2 10.8-8.1 14.5-11 0.9-0.7 2.3 0 2.3 1.1q0 0.3 0 0.6c0 9.3-3.4 14-10.1 14z"/>
</svg>