<svg width="11" height="11" viewBox="0 0 11 11" fill="none" xmlns="http://www.w3.org/2000/svg">
<path d="M5.5 2.75C5.35413 2.75 5.21424 2.80795 5.11109 2.91109C5.00795 3.01424 4.95 3.15413 4.95 3.3V5.5C4.95 5.64587 5.00795 5.78576 5.11109 5.88891C5.21424 5.99205 5.35413 6.05 5.5 6.05C5.64587 6.05 5.78577 5.99205 5.88891 5.88891C5.99205 5.78576 6.05 5.64587 6.05 5.5V3.3C6.05 3.15413 5.99205 3.01424 5.88891 2.91109C5.78577 2.80795 5.64587 2.75 5.5 2.75ZM6.006 7.491C5.99396 7.45595 5.97732 7.42266 5.9565 7.392L5.8905 7.3095C5.81316 7.23318 5.71494 7.18148 5.60825 7.16093C5.50155 7.14037 5.39116 7.15188 5.291 7.194C5.22435 7.22185 5.16296 7.26092 5.1095 7.3095C5.05853 7.36089 5.0182 7.42184 4.99083 7.48885C4.96346 7.55586 4.94958 7.62761 4.95 7.7C4.95087 7.77187 4.96582 7.84288 4.994 7.909C5.0187 7.97725 5.05811 8.03924 5.10944 8.09056C5.16076 8.14189 5.22275 8.1813 5.291 8.206C5.35684 8.2351 5.42802 8.25013 5.5 8.25013C5.57198 8.25013 5.64317 8.2351 5.709 8.206C5.77725 8.1813 5.83924 8.14189 5.89056 8.09056C5.94189 8.03924 5.9813 7.97725 6.006 7.909C6.03418 7.84288 6.04913 7.77187 6.05 7.7C6.0527 7.66338 6.0527 7.62662 6.05 7.59C6.04053 7.55493 6.02569 7.52153 6.006 7.491ZM5.5 0C4.4122 0 3.34884 0.322569 2.44437 0.926917C1.5399 1.53126 0.834947 2.39025 0.418665 3.39524C0.00238306 4.40023 -0.106535 5.5061 0.105683 6.573C0.317902 7.63989 0.841726 8.6199 1.61091 9.38909C2.3801 10.1583 3.36011 10.6821 4.42701 10.8943C5.4939 11.1065 6.59977 10.9976 7.60476 10.5813C8.60975 10.1651 9.46874 9.4601 10.0731 8.55563C10.6774 7.65116 11 6.5878 11 5.5C11 4.77773 10.8577 4.06253 10.5813 3.39524C10.3049 2.72795 9.89981 2.12163 9.38909 1.61091C8.87837 1.10019 8.27205 0.695063 7.60476 0.418663C6.93747 0.142262 6.22227 0 5.5 0ZM5.5 9.9C4.62976 9.9 3.77907 9.64194 3.05549 9.15846C2.33192 8.67499 1.76796 7.9878 1.43493 7.18381C1.10191 6.37981 1.01477 5.49512 1.18455 4.6416C1.35432 3.78809 1.77338 3.00408 2.38873 2.38873C3.00408 1.77338 3.78809 1.35432 4.6416 1.18454C5.49512 1.01477 6.37981 1.1019 7.18381 1.43493C7.9878 1.76796 8.67499 2.33191 9.15847 3.05549C9.64194 3.77907 9.9 4.62976 9.9 5.5C9.9 6.66695 9.43643 7.78611 8.61127 8.61127C7.78611 9.43643 6.66695 9.9 5.5 9.9Z" fill="#E30000"/>
</svg>
