<svg width="11" height="11" viewBox="0 0 11 11" fill="none" xmlns="http://www.w3.org/2000/svg">
<path d="M5.50001 2.75001C5.35414 2.75001 5.21425 2.80795 5.1111 2.9111C5.00796 3.01424 4.95001 3.15414 4.95001 3.30001V5.50001C4.95001 5.64588 5.00796 5.78577 5.1111 5.88892C5.21425 5.99207 5.35414 6.05001 5.50001 6.05001C5.64588 6.05001 5.78578 5.99207 5.88892 5.88892C5.99207 5.78577 6.05001 5.64588 6.05001 5.50001V3.30001C6.05001 3.15414 5.99207 3.01424 5.88892 2.9111C5.78578 2.80795 5.64588 2.75001 5.50001 2.75001ZM6.00601 7.49101C5.99398 7.45597 5.97733 7.42267 5.95651 7.39201L5.89051 7.30951C5.81317 7.2332 5.71496 7.1815 5.60826 7.16094C5.50157 7.14039 5.39117 7.15189 5.29101 7.19401C5.22436 7.22187 5.16297 7.26093 5.10951 7.30951C5.05854 7.36091 5.01821 7.42186 4.99084 7.48887C4.96347 7.55588 4.94959 7.62763 4.95001 7.70001C4.95088 7.77189 4.96583 7.84289 4.99401 7.90901C5.01871 7.97727 5.05812 8.03925 5.10945 8.09058C5.16078 8.1419 5.22276 8.18131 5.29101 8.20602C5.35685 8.23511 5.42803 8.25014 5.50001 8.25014C5.57199 8.25014 5.64318 8.23511 5.70901 8.20602C5.77727 8.18131 5.83925 8.1419 5.89058 8.09058C5.9419 8.03925 5.98131 7.97727 6.00601 7.90901C6.0342 7.84289 6.04915 7.77189 6.05001 7.70001C6.05271 7.6634 6.05271 7.62663 6.05001 7.59001C6.04054 7.55494 6.0257 7.52155 6.00601 7.49101ZM5.50001 0C4.41221 0 3.34884 0.32257 2.44437 0.926919C1.5399 1.53127 0.834949 2.39025 0.418666 3.39525C0.00238307 4.40024 -0.106535 5.50611 0.105684 6.57301C0.317903 7.63991 0.841728 8.61991 1.61092 9.38911C2.38011 10.1583 3.36012 10.6821 4.42701 10.8943C5.49391 11.1066 6.59978 10.9976 7.60478 10.5814C8.60977 10.1651 9.46876 9.46012 10.0731 8.55565C10.6775 7.65118 11 6.58781 11 5.50001C11 4.77774 10.8578 4.06254 10.5814 3.39525C10.305 2.72796 9.89983 2.12164 9.38911 1.61092C8.87838 1.10019 8.27207 0.695065 7.60478 0.418663C6.93748 0.142262 6.22228 0 5.50001 0ZM5.50001 9.90002C4.62977 9.90002 3.77908 9.64196 3.0555 9.15848C2.33192 8.675 1.76796 7.98782 1.43494 7.18382C1.10191 6.37982 1.01477 5.49513 1.18455 4.64161C1.35432 3.78809 1.77338 3.00409 2.38874 2.38873C3.00409 1.77338 3.7881 1.35432 4.64161 1.18455C5.49513 1.01477 6.37983 1.10191 7.18382 1.43493C7.98782 1.76796 8.67501 2.33192 9.15849 3.0555C9.64196 3.77907 9.90002 4.62977 9.90002 5.50001C9.90002 6.66697 9.43645 7.78612 8.61129 8.61129C7.78613 9.43645 6.66697 9.90002 5.50001 9.90002Z" fill="#E30000"/>
</svg>
