<svg width="11" height="11" viewBox="0 0 11 11" fill="none" xmlns="http://www.w3.org/2000/svg">
<path d="M5.5 2.75C5.35413 2.75 5.21423 2.80794 5.11109 2.91109C5.00794 3.01423 4.95 3.15413 4.95 3.3V5.5C4.95 5.64586 5.00794 5.78576 5.11109 5.8889C5.21423 5.99205 5.35413 6.04999 5.5 6.04999C5.64587 6.04999 5.78576 5.99205 5.88891 5.8889C5.99205 5.78576 6.05 5.64586 6.05 5.5V3.3C6.05 3.15413 5.99205 3.01423 5.88891 2.91109C5.78576 2.80794 5.64587 2.75 5.5 2.75ZM6.006 7.49099C5.99396 7.45594 5.97731 7.42265 5.9565 7.39199L5.8905 7.30949C5.81315 7.23318 5.71494 7.18148 5.60825 7.16092C5.50155 7.14037 5.39116 7.15187 5.291 7.19399C5.22435 7.22185 5.16296 7.26091 5.1095 7.30949C5.05852 7.36089 5.01819 7.42183 4.99082 7.48884C4.96345 7.55586 4.94958 7.62761 4.95 7.69999C4.95087 7.77187 4.96582 7.84287 4.994 7.90899C5.0187 7.97725 5.05811 8.03923 5.10943 8.09056C5.16076 8.14188 5.22275 8.18129 5.291 8.20599C5.35683 8.23509 5.42802 8.25012 5.5 8.25012C5.57198 8.25012 5.64316 8.23509 5.709 8.20599C5.77725 8.18129 5.83924 8.14188 5.89056 8.09056C5.94189 8.03923 5.9813 7.97725 6.006 7.90899C6.03418 7.84287 6.04913 7.77187 6.05 7.69999C6.0527 7.66338 6.0527 7.62661 6.05 7.58999C6.04053 7.55492 6.02568 7.52152 6.006 7.49099ZM5.5 0C4.4122 0 3.34883 0.322569 2.44436 0.926916C1.53989 1.53126 0.834946 2.39025 0.418665 3.39524C0.00238306 4.40023 -0.106535 5.5061 0.105683 6.57299C0.317902 7.63989 0.841726 8.61989 1.61091 9.38908C2.3801 10.1583 3.36011 10.6821 4.427 10.8943C5.4939 11.1065 6.59976 10.9976 7.60475 10.5813C8.60975 10.165 9.46873 9.4601 10.0731 8.55563C10.6774 7.65116 11 6.58779 11 5.5C11 4.77773 10.8577 4.06253 10.5813 3.39524C10.3049 2.72795 9.8998 2.12163 9.38908 1.61091C8.87836 1.10019 8.27205 0.695063 7.60475 0.418662C6.93746 0.142262 6.22227 0 5.5 0ZM5.5 9.89999C4.62976 9.89999 3.77907 9.64194 3.05549 9.15846C2.33191 8.67498 1.76796 7.98779 1.43493 7.1838C1.10191 6.37981 1.01477 5.49511 1.18455 4.6416C1.35432 3.78808 1.77338 3.00408 2.38873 2.38873C3.00408 1.77338 3.78809 1.35432 4.6416 1.18454C5.49512 1.01477 6.37981 1.1019 7.1838 1.43493C7.9878 1.76795 8.67498 2.33191 9.15846 3.05549C9.64194 3.77906 9.89999 4.62976 9.89999 5.5C9.89999 6.66695 9.43642 7.7861 8.61126 8.61126C7.78611 9.43642 6.66695 9.89999 5.5 9.89999Z" fill="#E30000"/>
</svg>
